<?xml version="1.0" encoding="UTF-8" standalone="no"?>
<!-- Created with Inkscape (http://www.inkscape.org/) -->

<svg
   version="1.1"
   id="svg2"
   xml:space="preserve"
   width="755.90668"
   height="755.90668"
   viewBox="0 0 755.90668 755.90668"
   sodipodi:docname="1.svg"
   inkscape:version="1.1.2 (0a00cf5339, 2022-02-04)"
   xmlns:inkscape="http://www.inkscape.org/namespaces/inkscape"
   xmlns:sodipodi="http://sodipodi.sourceforge.net/DTD/sodipodi-0.dtd"
   xmlns="http://www.w3.org/2000/svg"
   xmlns:svg="http://www.w3.org/2000/svg"><defs
     id="defs6" /><sodipodi:namedview
     id="namedview4"
     pagecolor="#ffffff"
     bordercolor="#666666"
     borderopacity="1.0"
     inkscape:pageshadow="2"
     inkscape:pageopacity="0.0"
     inkscape:pagecheckerboard="0"
     showgrid="false"
     inkscape:zoom="0.62176987"
     inkscape:cx="377.14918"
     inkscape:cy="377.14918"
     inkscape:window-width="1310"
     inkscape:window-height="704"
     inkscape:window-x="0"
     inkscape:window-y="0"
     inkscape:window-maximized="1"
     inkscape:current-layer="g8" /><g
     id="g8"
     inkscape:groupmode="layer"
     inkscape:label="ink_ext_XXXXXX"
     transform="matrix(1.3333333,0,0,-1.3333333,0,755.90667)"><g
       id="g10"
       transform="scale(0.1)"><path
         d="M 5669.3,0 H 0 V 5669.31 H 5669.3 V 0"
         style="fill:#80b198;fill-opacity:1;fill-rule:nonzero;stroke:none"
         id="path12" /><path
         d="m 5385.76,377.773 c -5.92,44.473 10.37,103.477 26.68,145.274 21,53.801 21.56,119.59 15.63,172.949 -23.73,134.453 -87.15,158.703 -97.25,161.641 -0.09,-0.067 -0.28,-0.215 -0.64,-0.469 0.19,0.156 0.41,0.312 0.6,0.48 0.02,-0.011 0.03,-0.011 0.04,-0.011 0.03,0.019 0.1,0.058 0.1,0.058 -0.02,0 -0.04,0 -0.06,0.008 64.48,51.488 98.03,142.887 56.52,255.207 -20.55,55.64 -63.6,76 -63.6,76 32.06,41.01 92.39,171.2 101.29,224.56 13.34,124.51 -22.24,244.58 -22.24,369.09 -137.85,-133.41 -213.44,-400.22 -128.94,-586.99 -53.37,40.03 -128.97,35.58 -182.33,0 -22.24,191.22 -75.6,426.9 -217.91,564.74 -124.49,-111.16 -40.02,-289.03 26.69,-409.1 31.12,-48.91 153.05,-165.71 146.75,-173.43 -62.29,-76.22 -88.94,-195.651 -35.57,-266.803 14.48,-18.907 30.24,-34.864 46.8,-48.106 -58.14,-29.609 -98.5,-136.699 -99.47,-182.695 -3.17,-148.446 59.29,-183.809 103.76,-290.547 -80.05,-11.856 -204.11,-17.539 -219.39,-65.215 91.91,-5.937 203.71,16.367 296.47,5.93 -11.86,59.285 -11.86,121.551 65.22,121.551 68.2,0 74.11,-59.297 74.11,-115.625 44.48,-8.899 94.89,-11.856 139.35,-11.856 32.61,0 106.73,-2.969 130.46,11.856 -20.53,27.714 -115.65,41.503 -163.07,41.503"
         style="fill:#ffffff;fill-opacity:1;fill-rule:nonzero;stroke:none"
         id="path14" /><path
         d="m 5387.99,377.773 c -3.54,30.411 1.54,60.782 8.94,90.254 7.52,29.934 20.67,57.989 27.91,87.95 14.01,57.871 12.11,122.246 -3.34,179.519 -10.05,37.277 -26.81,74.836 -54.94,102.043 -4.7,4.551 -29.55,27.332 -37.51,21.543 0.89,-1.172 1.8,-2.324 2.7,-3.496 -1.91,-1.492 -0.6,-0.449 0.28,0.195 1.37,1.004 1.58,3.692 -0.53,4.055 -0.02,0.008 -0.04,0.008 -0.05,0.008 0.33,-1.231 0.66,-2.473 0.98,-3.711 50.24,40.879 76.07,101.066 75.42,165.427 -0.62,61.1 -22.47,130.54 -75.9,165.23 -2.01,1.3 -4.08,2.5 -6.19,3.61 1.11,-0.58 2.93,1.32 5.45,4.91 7.54,10.72 14.09,22.13 20.49,33.54 15.69,28.04 29.47,57.2 42.23,86.67 11.28,26.04 21.81,52.64 29.37,80.03 10,36.15 7.77,76.33 6.01,113.4 -4.35,91.56 -23.86,181.73 -24.25,273.61 -0.01,1.94 -2.4,2.92 -3.8,1.56 -75.4,-73.65 -123.71,-172.85 -148.43,-274.45 -25.13,-103.38 -24.69,-216.88 19.13,-315.22 1.01,1.02 2.02,2.03 3.04,3.04 -54.75,39.66 -128.96,36.01 -184.57,0 1.12,-0.63 2.24,-1.28 3.35,-1.92 -12.04,102.65 -30.99,204.86 -63.99,302.98 -32.63,96.95 -80.79,191.2 -154.56,263.34 -0.89,0.88 -2.24,0.82 -3.14,0 -107.66,-98.14 -57.46,-248.05 -1.37,-359.77 12.07,-24.06 24.03,-48.51 40.56,-69.85 16.62,-21.49 35.13,-41.53 53.45,-61.54 18.49,-20.19 37.29,-40.09 55.58,-60.48 6.15,-6.84 12.23,-13.77 17.97,-20.98 1.97,-2.49 3.83,-5.06 5.49,-7.77 2.67,-4.33 -3.85,-9.21 -6.52,-12.77 -39.36,-52.3 -64.61,-124.69 -54.69,-190.488 5.04,-33.387 19.04,-60.195 41.1,-85.461 6.77,-7.75 14.17,-14.929 21.76,-21.875 0.67,-0.613 8.19,-8.015 8.97,-7.605 -2.85,-1.524 -5.54,-3.36 -8.21,-5.164 -11.8,-7.981 -21.66,-18.672 -30.52,-29.719 -33.1,-41.25 -58.26,-100.234 -59.13,-153.621 -1.04,-65.09 15.07,-123.84 47.18,-180.078 15.24,-26.711 31.6,-52.707 45.25,-80.324 3.58,-7.227 6.89,-14.59 10.09,-22.012 0.43,-0.977 -22.99,-4.121 -26.28,-4.531 -16.29,-2.051 -32.63,-3.954 -48.92,-6.161 -32.81,-4.425 -66.1,-9.25 -97.4,-20.421 -18.34,-6.532 -38.4,-16.836 -45.38,-36.27 -0.5,-1.434 0.81,-2.734 2.15,-2.812 98.91,-5.84 197.64,16.425 296.47,5.937 1.54,-0.164 2.4,1.523 2.15,2.813 -4.8,24.484 -8.5,50.195 -2.84,74.863 6.49,28.23 29.89,41.262 57.19,43.586 29.61,2.527 56.19,-7.805 69.44,-35.305 11.32,-23.535 11.11,-52.285 11.18,-77.812 0.01,-0.926 0.67,-1.954 1.63,-2.149 53.21,-10.312 106.95,-11.59 160.97,-12.098 21.64,-0.199 43.3,-0.109 64.91,1.629 15.27,1.231 32.09,2.922 45.62,10.696 1.35,0.769 1.33,2.398 0.45,3.496 -15.8,19.734 -47.33,26.101 -70.51,31.316 -30.7,6.887 -62.67,10.664 -94.12,10.84 -2.87,0.02 -2.87,-4.434 0,-4.453 31.19,-0.164 62.46,-4.16 92.92,-10.684 14.07,-3.008 27.96,-6.953 41.34,-12.246 6.13,-2.441 11.99,-5.488 17.54,-9.062 2.52,-1.621 4.78,-3.594 6.93,-5.653 2.5,-2.382 -0.8,-1.945 -5.05,-3.507 -28.42,-10.481 -63.19,-8.106 -92.99,-7.981 -38.13,0.168 -76.16,0.598 -114.15,4.281 -12.41,1.2 -24.76,2.899 -37.07,4.871 -1.87,0.301 -13.98,0.95 -13.98,4.383 -0.02,3.684 -0.09,7.356 -0.18,11.047 -0.31,14.473 -1.54,28.906 -4.41,43.106 -4.47,22.031 -16.14,44.472 -37.85,53.593 -24.57,10.313 -57.09,9.18 -80.02,-4.941 -18.79,-11.563 -25.28,-33.828 -26.82,-54.539 -1.34,-18.352 1.53,-37.004 4.89,-54.973 -0.26,1.399 -33.29,1.836 -36.55,1.934 -15.36,0.48 -30.75,0.168 -46.11,-0.332 -60.68,-1.961 -121.09,-9.442 -181.86,-9.207 -6.52,0.027 -13.03,0.23 -19.55,0.484 -6.24,0.246 -6.72,0.395 -3.85,5.149 4.52,7.558 12.34,12.832 19.75,17.168 17.18,10.031 37.52,14.843 56.76,19.082 45.35,9.96 91.89,13.281 137.75,19.98 1.57,0.215 1.82,2.102 1.33,3.262 -16.16,38.269 -38.1,73.125 -58.64,109.101 -22.55,39.5 -37.63,80.871 -42.75,126.231 -5.04,44.59 -0.56,84.57 15.43,126.328 15.71,40.984 40.77,87.141 80.88,108.535 1.18,0.625 1.55,2.598 0.45,3.496 -31.27,25.481 -58.36,56.082 -69.22,95.625 -9.74,35.527 -5.93,73.922 3.3,109.092 9.87,37.59 28.18,73.08 52,103.7 7.11,9.14 -1.84,16.29 -8.21,24.04 -33.59,40.86 -71.93,77.74 -106.38,117.86 -40.04,46.62 -66.8,104.39 -89.16,161.26 -24.98,63.58 -41.64,135.71 -20.43,202.7 5.11,16.15 13.04,31.22 22.48,45.23 5.38,8.01 11.66,15.34 18.18,22.41 3.01,3.24 6.23,6.29 9.43,9.33 3.1,2.94 10.49,-7.26 12.17,-9.01 25.8,-26.68 47.91,-56.72 67.48,-88.19 79.64,-128.13 113.89,-281.91 133.67,-429.74 1.47,-11.05 2.83,-22.11 4.13,-33.19 0.17,-1.55 1.77,-2.93 3.34,-1.92 54.39,35.22 126.52,38.8 180.07,0 2.02,-1.45 3.84,1.25 3.05,3.05 -43.5,97.64 -42.87,209.22 -18.67,311.78 23.77,100.76 72.75,199.68 147.28,272.51 -1.27,0.51 -2.53,1.04 -3.8,1.57 0.27,-63.78 9.35,-126.9 16.77,-190.11 3.69,-31.47 6.68,-63 7.97,-94.68 1.19,-29.52 2.35,-61.62 -3.78,-90.67 -8.37,-39.7 -26.02,-78.23 -42.88,-114.87 -16.09,-34.98 -33.24,-71.51 -56.83,-102.19 -0.7,-0.92 -0.2,-2.56 0.8,-3.05 53.39,-25.78 74.03,-92.91 79.68,-147.2 7.19,-68.97 -19.16,-136.645 -73.04,-180.513 -1.26,-1.015 -0.61,-3.437 0.97,-3.711 0.02,-0.007 0.03,-0.007 0.05,-0.019 -0.18,1.359 -0.36,2.715 -0.53,4.062 2.67,1.973 -0.38,-0.234 -1.2,-0.879 -1.96,-1.562 0.67,-4.968 2.7,-3.488 0.8,0.578 10.79,-4.89 13.32,-6.383 9.39,-5.519 17.58,-12.843 25,-20.754 28.59,-30.507 43.03,-72.441 52.25,-112.371 13.1,-56.796 10.35,-122.394 -6.61,-178.007 -16.05,-52.688 -38.28,-103.391 -31.71,-159.954 0.33,-2.812 4.78,-2.839 4.45,0"
         style="fill:#000000;fill-opacity:1;fill-rule:nonzero;stroke:none"
         id="path16" /><path
         d="m 5170.11,516.074 c -18.55,-2.07 -37.09,10.293 -43.27,28.836 4.12,0 12.36,4.121 18.54,2.063 -6.18,14.425 -18.54,32.976 4.13,37.09 -28.85,20.605 -24.72,80.371 10.3,47.402 4.12,24.726 51.51,57.695 51.51,16.484 6.18,37.09 68,37.09 39.15,-12.363 32.98,10.305 57.71,-16.484 28.85,-41.211 22.67,-12.363 10.31,-20.605 8.24,-35.039 0,-2.059 -10.29,-16.484 -12.35,-18.543 -4.12,-6.184 2.06,-16.477 -2.07,-22.668 -12.36,-16.484 -57.69,-30.906 -74.18,-12.363 4.13,-22.664 -35.03,-12.364 -30.91,12.363 l 2.06,-2.051"
         style="fill:#ffffff;fill-opacity:1;fill-rule:nonzero;stroke:none"
         id="path18" /><path
         d="m 5170.11,518.293 c -9.45,-0.539 -17.06,1.523 -25.15,6.387 -5.49,3.308 -9.47,8.523 -12.83,13.816 -5.04,7.922 7.36,7.117 12.67,6.328 2,-0.293 3.34,1.399 2.5,3.274 -4.96,11.14 -16.28,29.101 2.8,33.836 1.48,0.363 2.32,2.668 0.97,3.711 -11.07,8.574 -17.2,21.164 -18.37,35.039 -0.47,5.539 0.3,11.796 4.03,16.152 5.98,6.953 17.25,-3.164 21.5,-6.941 1.18,-1.047 3.35,-0.754 3.72,0.972 4.16,19.094 45.74,54.875 47.15,17.082 0.09,-2.422 3.84,-3.133 4.38,-0.586 2.85,13.75 13.34,24.211 27.73,24.793 21.58,0.903 13.34,-24.605 7.34,-35.457 -0.93,-1.699 0.61,-3.769 2.52,-3.261 11.66,3.093 23.65,3.417 33.42,-4.688 12.13,-10.059 1.56,-25.02 -6.74,-32.812 -1.05,-0.989 -0.75,-2.774 0.45,-3.489 9.2,-5.484 14.12,-10.808 10.45,-21.422 -1.49,-4.336 -2.2,-9.484 -4.32,-13.496 -4.25,-8.019 -11.99,-13.539 -12.85,-22.843 -0.66,-7.442 2.95,-12.442 -3.47,-18.887 -5.91,-5.918 -14.49,-9.531 -22.16,-12.344 -14.15,-5.195 -33.62,-7.578 -45.32,3.879 -1.27,1.238 -4.03,0.457 -3.79,-1.574 1.32,-11.875 -8.86,-11.543 -16.45,-7.774 -7.71,3.86 -10.82,11.953 -10.02,20.137 -1.27,-0.527 -2.54,-1.055 -3.79,-1.57 0.69,-0.688 1.37,-1.379 2.06,-2.063 2.03,-2.031 5.17,1.113 3.14,3.145 -0.68,0.691 -1.37,1.367 -2.05,2.062 -1.49,1.473 -3.61,0.274 -3.8,-1.574 -2.39,-24.363 38.27,-38.652 35.36,-12.363 -1.27,-0.528 -2.54,-1.043 -3.81,-1.571 17.48,-17.121 47.56,-8.253 66,2.618 8.57,5.046 13.96,10.691 13.23,20.886 -1.02,14.407 9.07,18.457 13.11,31.055 2.09,6.543 7.6,17.637 4.48,24.609 -2.13,4.707 -5.33,7.336 -9.41,10.34 -1.12,0.824 7.65,14.27 8.58,16.801 9.63,26.074 -27.04,31.602 -43.49,27.227 0.84,-1.086 1.68,-2.18 2.52,-3.262 7.58,13.738 14.51,37.187 -6.85,41.765 -17.56,3.77 -33.07,-11.816 -36.37,-27.695 1.46,-0.195 2.91,-0.39 4.37,-0.586 -1.64,43.731 -50.46,9.004 -55.89,-15.898 1.25,0.332 2.48,0.652 3.73,0.976 -10.24,9.121 -25.79,16.758 -31.94,-0.39 -6.21,-17.344 4.98,-39.668 18.48,-50.137 0.33,1.23 0.66,2.473 0.99,3.711 -23.06,-5.703 -12.36,-24.852 -5.46,-40.359 0.84,1.093 1.68,2.175 2.52,3.269 -7.09,1.047 -12.76,-1.074 -19.73,-2.058 -1.12,-0.168 -1.95,-1.711 -1.56,-2.747 7.51,-19.257 24.41,-31.66 45.42,-30.468 2.85,0.156 2.86,4.609 0,4.445"
         style="fill:#000000;fill-opacity:1;fill-rule:nonzero;stroke:none"
         id="path20" /><path
         d="m 5192.62,608.801 c -1.87,-14.903 2.65,-20.305 17.24,-14.516 -0.91,0.91 -1.83,1.828 -2.74,2.727 -5.85,-19.539 -3.29,-50.039 20.1,-56.309 2.77,-0.742 3.95,3.555 1.18,4.297 -20.92,5.598 -22.11,33.738 -16.98,50.84 0.44,1.504 -1.15,3.371 -2.75,2.734 -9.98,-3.965 -12.77,0.899 -11.6,10.227 0.35,2.84 -4.1,2.801 -4.45,0 v 0"
         style="fill:#000000;fill-opacity:1;fill-rule:nonzero;stroke:none"
         id="path22" /><path
         d="m 5100.66,869.434 c 29.75,19.902 66.68,25.879 101.88,25.988 33.57,0.086 70.33,-6.359 98.28,-25.988 2.36,-1.653 4.57,2.207 2.26,3.828 -28.88,20.293 -65.97,26.133 -100.54,26.609 -35.68,0.481 -74.06,-6.504 -104.12,-26.609 -2.37,-1.571 -0.16,-5.43 2.24,-3.828 v 0"
         style="fill:#000000;fill-opacity:1;fill-rule:nonzero;stroke:none"
         id="path24" /><path
         d="m 619.945,857.832 c -0.804,0.215 -0.84,0.164 0,0 v 0"
         style="fill:#ffffff;fill-opacity:1;fill-rule:nonzero;stroke:none"
         id="path26" /><path
         d="m 619.945,855.613 c 2.864,0 2.864,4.446 0,4.446 -2.875,0 -2.875,-4.446 0,-4.446"
         style="fill:#000000;fill-opacity:1;fill-rule:nonzero;stroke:none"
         id="path28" /><path
         d="m 675.637,377.773 c -5.934,44.473 10.371,103.477 26.683,145.274 20.996,53.801 21.547,119.59 15.618,172.949 -23.918,135.547 -88.172,159.094 -97.485,161.699 l -3.914,2.082 c 31.266,41.153 94.352,186.043 103.016,239.583 13.011,124.98 -21.68,245.48 -21.68,370.44 C 563.453,1335.91 489.73,1068.13 572.129,880.684 c -52.039,40.168 -125.758,35.703 -177.793,0 -21.684,191.916 -73.715,428.436 -212.481,566.796 -121.4175,-111.57 -39.027,-290.1 26.02,-410.59 30.223,-48.894 148.219,-165.308 143.148,-173.941 l -2.593,0.059 C 290.156,833.547 249.707,726.238 248.723,680.176 245.547,531.73 308.012,496.367 352.484,389.629 272.438,377.773 148.379,372.09 133.098,324.414 c 91.906,-5.937 203.703,16.367 296.465,5.93 -11.852,59.285 -11.852,121.551 65.222,121.551 68.188,0 74.121,-59.297 74.121,-115.625 44.473,-8.899 94.871,-11.856 139.34,-11.856 32.609,0 106.731,-2.969 130.445,11.856 -20.515,27.714 -115.621,41.503 -163.054,41.503"
         style="fill:#ffffff;fill-opacity:1;fill-rule:nonzero;stroke:none"
         id="path30" /><path
         d="m 677.855,377.773 c -4.843,41.68 5.731,83.946 18.809,123.254 6.117,18.387 13.488,36.043 18.055,54.95 4.855,20.078 7.039,40.8 8.176,61.386 3.742,67.864 -7.754,141.496 -47.586,198.203 -9.618,13.672 -21.481,25.911 -35.442,35.176 -4.047,2.676 -8.363,5 -12.824,6.914 -1.34,0.578 -2.707,1.114 -4.09,1.59 -3.969,1.399 -3.969,0.09 -2.09,2.688 32.461,45.011 53.918,100.586 74.071,151.886 9.468,24.12 18.433,48.68 24.531,73.89 8.699,36.02 5.926,76.4 3.992,113.08 -4.742,89.99 -22.984,178.71 -23.359,269.01 -0.008,1.93 -2.418,2.95 -3.793,1.57 -74.075,-74.48 -120.801,-174.08 -144.758,-275.45 -24.516,-103.77 -24.18,-217.385 18.664,-316.357 1.004,1.003 2.019,2.031 3.035,3.035 -53.285,39.707 -125.863,36.074 -180.031,0 1.117,-0.625 2.23,-1.27 3.344,-1.914 -11.809,103.671 -30.442,206.966 -63.125,306.226 -31.625,96.04 -78.137,189.8 -150,262.14 -0.879,0.88 -2.274,0.83 -3.157,0 -105.4215,-98.91 -55.961,-249.09 -1.339,-361.06 12.175,-24.98 24.253,-50.13 41.191,-72.26 16.281,-21.285 34.211,-41.335 52.027,-61.335 18.211,-20.45 36.746,-40.606 54.676,-61.29 6.055,-6.972 12.074,-14.023 17.523,-21.484 1.481,-2.031 2.868,-4.133 4.036,-6.355 1.519,-2.911 -0.676,-0.032 1.339,-0.071 -2.421,0.059 -2.765,-0.449 -5.234,-1.757 -24.484,-12.969 -42.324,-37.325 -56.391,-60.45 -15.632,-25.703 -27.187,-54.258 -35.078,-83.25 -15.722,-57.785 -5.41,-125.121 17.496,-179.629 10.516,-25.031 24.665,-48.3 38.465,-71.593 7.274,-12.266 14.407,-24.602 21.157,-37.149 3.628,-6.75 7.062,-13.601 10.398,-20.5 2.594,-5.34 12.715,-18.902 4.18,-20.125 C 284.48,382.207 217.234,381.66 161.445,354.973 148.23,348.652 136.023,339.152 130.953,325 c -0.515,-1.434 0.801,-2.734 2.145,-2.812 98.91,-5.84 197.64,16.425 296.465,5.937 1.542,-0.176 2.394,1.523 2.152,2.813 -4.801,24.472 -8.496,50.195 -2.828,74.863 6.484,28.23 29.879,41.25 57.183,43.586 29.614,2.527 56.188,-7.805 69.426,-35.305 11.34,-23.535 11.125,-52.285 11.184,-77.812 0.004,-0.926 0.675,-1.954 1.636,-2.149 53.207,-10.312 106.954,-11.59 160.969,-12.098 21.649,-0.199 43.313,-0.109 64.903,1.629 15.281,1.231 32.101,2.922 45.625,10.696 1.347,0.769 1.324,2.398 0.453,3.496 -15.793,19.734 -47.332,26.101 -70.524,31.316 -30.687,6.887 -62.652,10.664 -94.105,10.84 -2.867,0.02 -2.867,-4.434 0,-4.453 31.183,-0.164 62.449,-4.16 92.922,-10.684 14.07,-3.008 27.957,-6.953 41.336,-12.254 6.14,-2.433 11.996,-5.48 17.539,-9.054 2.523,-1.621 4.773,-3.594 6.929,-5.664 2.492,-2.371 -0.789,-1.934 -5.05,-3.496 -28.415,-10.481 -63.196,-8.106 -92.989,-7.981 -38.121,0.168 -76.168,0.598 -114.144,4.281 -12.414,1.2 -24.77,2.899 -37.075,4.871 -1.867,0.301 -13.976,0.95 -13.984,4.383 -0.008,3.684 -0.086,7.356 -0.164,11.047 -0.316,14.473 -1.555,28.906 -4.434,43.106 -4.457,22.031 -16.128,44.472 -37.847,53.593 -24.574,10.313 -57.09,9.18 -80.016,-4.941 -18.789,-11.563 -25.281,-33.828 -26.808,-54.551 -1.356,-18.34 1.527,-36.992 4.886,-54.961 -0.258,1.387 -33.293,1.836 -36.543,1.934 -15.371,0.48 -30.765,0.168 -46.125,-0.332 -60.675,-1.973 -121.086,-9.442 -181.851,-9.207 -6.52,0.027 -13.035,0.23 -19.543,0.484 -6.246,0.246 -6.719,0.383 -3.863,5.149 4.523,7.558 12.339,12.832 19.757,17.16 17.172,10.039 37.516,14.851 56.75,19.09 45.348,9.96 91.887,13.281 137.754,19.968 1.574,0.227 1.821,2.114 1.328,3.274 -16.156,38.269 -38.097,73.125 -58.632,109.093 -22.555,39.508 -37.633,80.879 -42.762,126.239 -5.199,46.023 -0.11,87.051 16.879,129.961 8.472,21.418 19.398,41.906 32.531,60.82 6.855,9.855 14.73,18.938 23.398,27.227 5.473,5.234 16.864,16.789 25.207,16.621 1.051,-0.008 1.809,0.715 2.145,1.64 2.66,7.285 -12.688,21.485 -16.551,26.106 -16.679,19.961 -34.41,39.07 -51.789,58.418 -19.015,21.187 -38.008,42.461 -55.828,64.673 -17.633,21.99 -30.039,46.26 -42.629,71.4 -31.637,63.17 -59.547,131.29 -64.121,202.53 -2.223,34.66 2.965,69.55 17.324,101.27 7.196,15.89 17.196,30.36 28.535,43.53 4.864,5.65 11.129,16.75 18.114,9.59 6.914,-7.11 13.496,-14.52 19.937,-22.05 62.332,-72.74 101.774,-163.14 129.938,-253.85 28.586,-92.05 45.117,-187.671 56.015,-283.296 0.176,-1.543 1.793,-2.95 3.348,-1.922 52.98,35.281 123.406,38.836 175.547,0 2.012,-1.496 3.801,1.277 3.039,3.047 -42.524,98.23 -41.801,210.011 -18.211,312.931 23.047,100.51 70.379,199.85 143.613,273.48 -1.269,0.53 -2.531,1.06 -3.801,1.58 0.29,-67.75 10.219,-134.75 17.598,-201.95 3.68,-33.47 6.379,-67.03 6.953,-100.7 0.465,-27.56 0.528,-56.37 -6.25,-83.22 -10.609,-42 -28.09,-82.76 -45.648,-122.231 -15.258,-34.297 -31.113,-70.547 -53.684,-100.801 -0.699,-0.937 -0.183,-2.531 0.805,-3.046 14.125,-7.481 26.867,-12.957 38.863,-24.422 29.637,-28.332 45.149,-69.153 55.141,-107.961 14.988,-58.301 13.512,-125.137 -2.832,-182.949 -7.938,-28.067 -19.68,-54.61 -26.465,-83.114 -6.324,-26.574 -9.879,-54.375 -6.723,-81.633 0.332,-2.812 4.782,-2.839 4.449,0"
         style="fill:#000000;fill-opacity:1;fill-rule:nonzero;stroke:none"
         id="path32" /><path
         d="m 619.945,857.832 c 0.149,-0.027 0.313,-0.078 0.508,-0.137 h 0.332 c -0.351,0.059 -0.617,0.11 -0.84,0.137"
         style="fill:#ffffff;fill-opacity:1;fill-rule:nonzero;stroke:none"
         id="path34" /><path
         d="m 619.352,855.703 c 0.476,-0.129 0.937,-0.223 1.433,-0.234 2.453,-0.039 3.102,3.957 0.594,4.367 -0.281,0.047 -0.563,0.105 -0.848,0.152 -2.801,0.5 -4,-3.789 -1.179,-4.285 0.281,-0.058 0.558,-0.105 0.843,-0.156 0.2,1.465 0.391,2.922 0.59,4.375 -0.512,0.012 0.442,-0.117 -0.254,0.066 -2.773,0.727 -3.949,-3.562 -1.179,-4.285"
         style="fill:#000000;fill-opacity:1;fill-rule:nonzero;stroke:none"
         id="path36" /><path
         d="m 439.434,681.652 c -18.539,-2.062 -37.09,10.301 -43.274,28.836 4.129,0 12.371,4.129 18.547,2.071 -6.176,14.425 -18.547,32.968 4.121,37.089 -28.848,20.606 -24.726,80.372 10.309,47.403 4.121,24.726 51.511,57.695 51.511,16.476 6.188,37.098 68.004,37.098 39.157,-12.355 32.968,10.305 57.695,-16.484 28.847,-41.223 22.664,-12.359 10.301,-20.601 8.243,-35.027 0,-2.059 -10.301,-16.484 -12.364,-18.543 -4.125,-6.184 2.063,-16.484 -2.058,-22.668 -12.368,-16.484 -57.703,-30.918 -74.188,-12.363 4.117,-22.664 -35.027,-12.364 -30.906,12.363 l 2.055,-2.059"
         style="fill:#ffffff;fill-opacity:1;fill-rule:nonzero;stroke:none"
         id="path38" /><path
         d="m 439.434,683.867 c -9.446,-0.527 -17.063,1.524 -25.153,6.399 -5.488,3.3 -9.472,8.523 -12.832,13.816 -5.027,7.922 7.367,7.109 12.672,6.328 2,-0.293 3.344,1.387 2.504,3.274 -4.953,11.14 -16.273,29.089 2.793,33.828 1.484,0.359 2.328,2.664 0.988,3.711 -11.082,8.582 -17.207,21.172 -18.39,35.039 -0.473,5.547 0.308,11.804 4.039,16.16 5.976,6.953 17.261,-3.164 21.508,-6.953 1.171,-1.035 3.335,-0.742 3.71,0.984 4.165,19.094 45.743,54.875 47.157,17.074 0.082,-2.414 3.836,-3.125 4.363,-0.586 2.855,13.758 13.34,24.207 27.734,24.801 21.582,0.903 13.344,-24.617 7.36,-35.457 -0.949,-1.699 0.593,-3.769 2.508,-3.262 11.668,3.094 23.644,3.418 33.433,-4.687 12.125,-10.059 1.555,-25.027 -6.75,-32.813 -1.058,-0.996 -0.75,-2.773 0.457,-3.496 9.188,-5.488 14.121,-10.8 10.445,-21.425 -1.496,-4.336 -2.21,-9.493 -4.328,-13.497 -4.242,-8.007 -11.988,-13.535 -12.836,-22.839 -0.675,-7.434 2.938,-12.442 -3.488,-18.879 -5.902,-5.918 -14.496,-9.532 -22.156,-12.344 -14.141,-5.195 -33.613,-7.578 -45.313,3.879 -1.265,1.238 -4.023,0.445 -3.8,-1.574 1.32,-11.875 -8.848,-11.551 -16.434,-7.774 -7.727,3.848 -10.824,11.953 -10.023,20.137 -1.274,-0.527 -2.532,-1.055 -3.797,-1.57 0.683,-0.696 1.375,-1.379 2.062,-2.063 2.02,-2.031 5.168,1.113 3.141,3.145 -0.688,0.683 -1.375,1.367 -2.063,2.058 -1.472,1.477 -3.609,0.278 -3.793,-1.57 -2.394,-24.375 38.282,-38.66 35.36,-12.363 -1.266,-0.528 -2.532,-1.055 -3.797,-1.571 17.48,-17.129 47.555,-8.254 66,2.618 8.558,5.046 13.957,10.679 13.226,20.886 -1.031,14.395 9.063,18.457 13.098,31.055 2.098,6.543 7.609,17.637 4.484,24.602 -2.121,4.714 -5.335,7.332 -9.414,10.339 -1.113,0.832 7.661,14.278 8.582,16.809 9.633,26.07 -27.039,31.59 -43.476,27.227 0.836,-1.086 1.676,-2.18 2.508,-3.262 7.59,13.738 14.523,37.176 -6.856,41.765 -17.554,3.77 -33.066,-11.816 -36.359,-27.695 1.453,-0.195 2.91,-0.391 4.367,-0.594 -1.637,43.739 -50.457,9.012 -55.883,-15.89 1.235,0.324 2.477,0.656 3.711,0.976 -10.23,9.121 -25.781,16.758 -31.926,-0.39 -6.214,-17.344 4.977,-39.676 18.485,-50.137 0.328,1.23 0.652,2.473 0.976,3.711 -23.047,-5.723 -12.347,-24.863 -5.449,-40.359 0.84,1.082 1.668,2.175 2.508,3.269 -7.082,1.035 -12.746,-1.086 -19.727,-2.07 -1.117,-0.157 -1.957,-1.707 -1.55,-2.735 7.5,-19.265 24.402,-31.66 45.414,-30.468 2.847,0.156 2.871,4.597 0,4.433"
         style="fill:#000000;fill-opacity:1;fill-rule:nonzero;stroke:none"
         id="path40" /><path
         d="m 461.938,774.387 c -1.86,-14.914 2.664,-20.305 17.242,-14.524 -0.914,0.918 -1.821,1.836 -2.739,2.735 -5.851,-19.551 -3.293,-50.047 20.102,-56.309 2.773,-0.742 3.949,3.555 1.184,4.297 -20.918,5.586 -22.114,33.738 -16.989,50.84 0.45,1.496 -1.133,3.371 -2.734,2.734 -9.996,-3.965 -12.785,0.899 -11.617,10.227 0.359,2.832 -4.09,2.793 -4.449,0 v 0"
         style="fill:#ffffff;fill-opacity:1;fill-rule:nonzero;stroke:none"
         id="path42" /><path
         d="m 4427.03,377.773 c -5.94,44.473 10.37,103.477 26.68,145.262 21,53.801 21.54,119.602 15.63,172.961 -23.92,135.547 -88.18,159.082 -97.48,161.699 l -3.92,2.071 c 31.26,41.152 58.13,23.789 107.72,-83.907 75.12,-218.23 293.34,-323.613 333.03,-238.066 -58.1,366.504 -567.56,530.337 -485.17,342.883 -52.04,40.176 -125.75,35.711 -177.79,0 -21.69,191.914 -300.26,-31.797 -575.09,-304.375 -121.42,-111.574 222.27,-134.348 381.92,110.976 100.06,197.469 154.92,184.305 149.86,175.672 l -2.6,0.047 c -58.27,-29.461 -98.71,-136.766 -99.7,-182.828 -3.18,-148.449 59.29,-183.809 103.77,-290.539 -80.06,-11.856 -204.12,-17.539 -219.4,-65.215 91.9,-5.937 203.7,16.367 296.47,5.918 -11.86,59.297 -11.86,121.563 65.23,121.563 68.19,0 74.11,-59.297 74.11,-115.625 44.47,-8.899 94.88,-11.856 139.35,-11.856 32.61,0 106.73,-2.969 130.44,11.856 -20.52,27.714 -115.62,41.503 -163.06,41.503"
         style="fill:#ffffff;fill-opacity:1;fill-rule:nonzero;stroke:none"
         id="path44" /><path
         d="m 4429.26,377.773 c -4.85,41.68 5.72,83.946 18.81,123.243 6.11,18.39 13.47,36.054 18.04,54.961 4.86,20.078 7.05,40.8 8.18,61.378 3.74,67.86 -7.76,141.493 -47.59,198.204 -9.61,13.679 -21.47,25.906 -35.43,35.183 -4.06,2.676 -8.38,4.992 -12.83,6.914 -1.35,0.578 -2.71,1.106 -4.08,1.582 -4.2,1.477 -4.09,0 -1.74,2.879 13.47,16.582 29.39,20.676 45.86,5.578 24.49,-22.441 39.02,-58.281 52.81,-87.656 7.56,-16.086 12.83,-33.269 20.24,-49.48 7.51,-16.418 16.2,-32.286 25.55,-47.707 16.26,-26.836 35.54,-51.836 56.85,-74.844 35.07,-37.879 77.74,-70.93 125.91,-90.195 28.81,-11.504 68.03,-20.215 95.32,-0.333 4.84,3.536 8.77,8.047 12.07,13.02 6.06,9.102 1.92,18.199 -0.16,28.406 -5.64,27.676 -14.34,54.668 -25.14,80.742 -39.36,95.098 -110.45,175.059 -193.63,234.426 -60.29,43.035 -136.92,85.008 -212.94,86.903 -19.18,0.488 -43.3,-2.676 -55.52,-19.434 -13.41,-18.387 -6.44,-42.996 1.76,-61.992 1.02,1.015 2.03,2.031 3.05,3.047 -53.29,39.707 -125.86,36.062 -180.04,0 1.11,-0.633 2.24,-1.278 3.34,-1.922 -3.97,32.832 -17.36,66.07 -53.16,72.898 -41.08,7.813 -86.27,-16.629 -120.65,-35.871 -62.09,-34.754 -118.57,-79.801 -173.01,-125.32 -70.36,-58.836 -137.32,-121.738 -202.91,-185.801 -16.93,-16.531 -38.26,-32.832 -49.96,-53.984 -4.71,-8.516 -6.91,-18.543 -3.73,-27.957 7.56,-22.395 38.85,-27.961 58.85,-30.063 94.37,-9.91 195.21,37.719 266.14,96.106 23.62,19.445 45.19,41.718 63.88,65.929 24.24,31.383 40.27,67.567 60.82,101.367 22.09,36.329 49.26,80.594 87.79,101.922 4.36,2.422 12.63,6.778 17.87,4.453 1.64,-0.722 1.14,1.27 -0.64,0.782 -11.01,-3.028 -22.42,-15.02 -30.2,-22.821 -38.34,-38.507 -63.95,-98.937 -70.48,-152.5 -6,-49.336 4.22,-104.191 23.35,-149.707 17.52,-41.652 44.3,-78.683 64.87,-118.8 2.99,-5.821 5.8,-11.739 8.55,-17.664 2.33,-5.012 8.62,-11.79 0.78,-12.903 -13.93,-1.972 -27.93,-3.625 -41.89,-5.351 -25.84,-3.184 -51.66,-6.485 -77.26,-11.27 C 3946,368.32 3894.75,359.57 3882.34,325 c -0.5,-1.445 0.8,-2.734 2.15,-2.812 98.91,-5.84 197.64,16.417 296.47,5.917 1.54,-0.156 2.4,1.543 2.15,2.833 -4.8,24.472 -8.5,50.195 -2.84,74.863 6.49,28.23 29.9,41.25 57.19,43.586 29.62,2.527 56.19,-7.805 69.43,-35.305 11.34,-23.535 11.12,-52.285 11.2,-77.812 0,-0.926 0.66,-1.954 1.62,-2.149 53.21,-10.312 106.95,-11.601 160.97,-12.098 21.64,-0.207 43.32,-0.109 64.91,1.629 15.27,1.231 32.11,2.922 45.62,10.696 1.35,0.769 1.33,2.39 0.45,3.496 -15.8,19.734 -47.34,26.094 -70.53,31.297 -30.68,6.894 -62.65,10.683 -94.1,10.859 -2.87,0.02 -2.87,-4.434 0,-4.453 31.19,-0.176 62.46,-4.16 92.93,-10.684 14.06,-3.008 27.95,-6.953 41.33,-12.254 6.15,-2.433 11.99,-5.5 17.54,-9.054 2.52,-1.621 4.78,-3.594 6.93,-5.664 2.5,-2.383 -0.79,-1.934 -5.06,-3.504 -28.41,-10.473 -63.18,-8.106 -92.99,-7.973 -38.12,0.168 -76.16,0.59 -114.14,4.27 -12.41,1.211 -24.76,2.91 -37.07,4.882 -1.87,0.293 -13.97,0.95 -13.98,4.375 -0.02,3.692 -0.08,7.364 -0.16,11.047 -0.33,14.473 -1.56,28.914 -4.43,43.114 -4.47,22.031 -16.13,44.464 -37.86,53.593 -24.56,10.313 -57.08,9.16 -80.01,-4.941 -18.79,-11.563 -25.29,-33.828 -26.82,-54.551 -1.35,-18.34 1.53,-36.992 4.9,-54.961 -0.27,1.387 -33.3,1.828 -36.55,1.934 -15.37,0.469 -30.75,0.168 -46.12,-0.332 -60.68,-1.973 -121.09,-9.442 -181.86,-9.219 -6.52,0.031 -13.02,0.234 -19.54,0.488 -6.25,0.235 -6.73,0.391 -3.86,5.157 4.52,7.558 12.34,12.824 19.75,17.16 17.19,10.027 37.52,14.851 56.76,19.082 45.34,9.968 91.89,13.277 137.75,19.976 1.58,0.227 1.82,2.102 1.33,3.266 -16.15,38.277 -38.1,73.133 -58.63,109.101 -22.56,39.508 -37.64,80.879 -42.77,126.239 -5.19,46.015 -0.1,87.051 16.88,129.961 8.48,21.406 19.4,41.906 32.54,60.808 6.84,9.867 14.73,18.938 23.39,27.239 5.47,5.234 16.86,16.777 25.21,16.621 0.76,-0.008 1.56,0.429 1.93,1.101 5.63,10.793 -16.4,5.754 -19.55,4.367 -31.93,-13.972 -55.41,-47.824 -74.55,-75.324 -22.59,-32.449 -41.7,-67.281 -59.61,-102.469 -14.72,-28.886 -41.52,-55.332 -64.84,-77.41 -42.89,-40.636 -94.78,-71.691 -150.33,-91.652 -41.15,-14.785 -86.17,-24.094 -130.06,-20.496 -21,1.719 -59.77,9.129 -57.91,37.441 0.98,14.578 13.14,27.379 23.04,36.883 33.87,32.52 67.1,65.703 101.31,97.871 64,60.188 129.81,118.77 199.67,172.121 53.52,40.887 113.4,85.555 179.61,102.977 20.48,5.39 43.67,7.09 62.44,-4.356 20.51,-12.539 27.25,-38.867 29.95,-61.101 0.17,-1.524 1.77,-2.949 3.34,-1.914 52.98,35.281 123.41,38.836 175.54,0 2.01,-1.504 3.81,1.277 3.04,3.035 -8.76,20.293 -15.67,48.574 5.05,64.121 20.14,15.117 51.27,11.562 74.31,7.539 85.27,-14.902 165.86,-65.84 230.1,-121.777 83.17,-72.41 146.35,-168.516 168.58,-277.344 2.47,-12.109 3.46,-18.457 -4.89,-27.813 -5.37,-6.015 -12.54,-10.07 -20.05,-12.714 -17.04,-5.977 -36.29,-3.606 -53.42,0.527 -50.59,12.18 -95.82,45.723 -132.67,81.144 -28.62,27.52 -53.09,59.188 -73.64,93.106 -23.6,38.934 -37.16,82.078 -57.68,122.449 -11.89,23.371 -27.5,57.903 -53.32,69.317 -17.07,7.539 -31.75,-6.524 -41.44,-19.012 -0.84,-1.067 -0.95,-2.746 0.45,-3.488 14.12,-7.481 26.87,-12.957 38.86,-24.422 29.63,-28.332 45.14,-69.153 55.14,-107.969 15,-58.293 13.52,-125.129 -2.83,-182.941 -7.94,-28.067 -19.68,-54.61 -26.47,-83.114 -6.32,-26.582 -9.88,-54.386 -6.72,-81.633 0.34,-2.812 4.79,-2.851 4.46,0"
         style="fill:#000000;fill-opacity:1;fill-rule:nonzero;stroke:none"
         id="path46" /><path
         d="m 4196.5,641.965 c -18.55,-2.063 -37.09,10.301 -43.28,28.848 4.12,0 12.37,4.121 18.56,2.058 -6.19,14.426 -18.56,32.969 4.12,37.102 -28.85,20.593 -24.73,80.359 10.29,47.39 4.12,24.727 51.52,57.696 51.52,16.485 6.2,37.09 68,37.09 39.17,-12.364 32.96,10.301 57.69,-16.484 28.83,-41.218 22.67,-12.356 10.31,-20.598 8.25,-35.032 0,-2.058 -10.31,-16.484 -12.36,-18.535 -4.12,-6.191 2.05,-16.496 -2.07,-22.676 -12.36,-16.484 -57.69,-30.918 -74.18,-12.363 4.12,-22.668 -35.04,-12.363 -30.92,12.363 l 2.07,-2.058"
         style="fill:#ffffff;fill-opacity:1;fill-rule:nonzero;stroke:none"
         id="path48" /><path
         d="m 4196.5,644.191 c -9.45,-0.539 -17.06,1.524 -25.15,6.395 -5.49,3.301 -9.47,8.516 -12.83,13.809 -5.04,7.921 7.36,7.128 12.66,6.328 2,-0.293 3.35,1.394 2.51,3.269 -4.96,11.145 -16.27,29.106 2.79,33.84 1.49,0.352 2.33,2.664 0.98,3.711 -11.07,8.586 -17.19,21.172 -18.38,35.039 -0.47,5.535 0.31,11.809 4.05,16.152 5.96,6.954 17.25,-3.164 21.5,-6.953 1.17,-1.035 3.34,-0.742 3.71,0.989 4.16,19.089 45.74,54.871 47.15,17.078 0.1,-2.422 3.85,-3.133 4.37,-0.586 2.85,13.75 13.34,24.211 27.73,24.804 21.58,0.899 13.35,-24.617 7.36,-35.457 -0.95,-1.711 0.6,-3.769 2.51,-3.273 11.66,3.105 23.65,3.43 33.43,-4.688 12.13,-10.07 1.55,-25.019 -6.75,-32.812 -1.05,-0.996 -0.74,-2.773 0.45,-3.484 9.19,-5.489 14.14,-10.813 10.45,-21.426 -1.49,-4.348 -2.21,-9.492 -4.33,-13.496 -4.25,-8.02 -11.98,-13.535 -12.83,-22.844 -0.67,-7.441 2.94,-12.449 -3.49,-18.887 -5.89,-5.918 -14.49,-9.531 -22.16,-12.344 -14.13,-5.195 -33.62,-7.578 -45.3,3.879 -1.29,1.239 -4.03,0.457 -3.8,-1.574 1.32,-11.863 -8.85,-11.543 -16.45,-7.773 -7.72,3.855 -10.82,11.953 -10.02,20.136 -1.26,-0.527 -2.53,-1.043 -3.79,-1.574 0.68,-0.679 1.38,-1.375 2.05,-2.058 2.03,-2.032 5.18,1.113 3.15,3.144 -0.69,0.695 -1.37,1.375 -2.05,2.07 -1.48,1.473 -3.62,0.274 -3.8,-1.582 -2.4,-24.367 38.27,-38.652 35.35,-12.363 -1.26,-0.527 -2.52,-1.047 -3.8,-1.57 17.49,-17.121 47.56,-8.254 66,2.613 8.57,5.051 13.96,10.695 13.24,20.891 -1.04,14.402 9.06,18.457 13.1,31.054 2.09,6.543 7.61,17.637 4.48,24.61 -2.13,4.707 -5.34,7.324 -9.42,10.344 -1.11,0.82 7.66,14.277 8.6,16.796 9.62,26.075 -27.06,31.59 -43.5,27.235 0.84,-1.094 1.68,-2.18 2.52,-3.27 7.59,13.739 14.52,37.188 -6.86,41.766 -17.55,3.769 -33.06,-11.816 -36.36,-27.695 1.46,-0.196 2.91,-0.391 4.36,-0.586 -1.63,43.73 -50.45,9.004 -55.88,-15.899 1.24,0.332 2.48,0.664 3.72,0.989 -10.23,9.109 -25.78,16.757 -31.93,-0.391 -6.21,-17.356 4.98,-39.68 18.48,-50.149 0.33,1.231 0.66,2.469 0.98,3.711 -23.05,-5.722 -12.35,-24.851 -5.44,-40.363 0.82,1.098 1.66,2.192 2.5,3.274 -7.09,1.046 -12.74,-1.075 -19.72,-2.059 -1.12,-0.168 -1.96,-1.711 -1.55,-2.734 7.5,-19.27 24.4,-31.672 45.41,-30.481 2.86,0.156 2.86,4.609 0,4.445"
         style="fill:#000000;fill-opacity:1;fill-rule:nonzero;stroke:none"
         id="path50" /><path
         d="m 4219,734.699 c -1.85,-14.894 2.67,-20.304 17.25,-14.523 -0.92,0.918 -1.82,1.836 -2.73,2.746 -5.86,-19.555 -3.31,-50.059 20.09,-56.309 2.78,-0.746 3.95,3.543 1.19,4.285 -20.93,5.586 -22.12,33.75 -17,50.84 0.44,1.504 -1.14,3.371 -2.74,2.735 -9.99,-3.965 -12.77,0.91 -11.61,10.226 0.36,2.84 -4.09,2.801 -4.45,0 v 0"
         style="fill:#ffffff;fill-opacity:1;fill-rule:nonzero;stroke:none"
         id="path52" /><path
         d="m 2499.36,857.832 c -0.81,0.215 -0.84,0.164 0,0 v 0"
         style="fill:#ffffff;fill-opacity:1;fill-rule:nonzero;stroke:none"
         id="path54" /><path
         d="m 2499.36,855.613 c 2.86,0 2.86,4.446 0,4.446 -2.87,0 -2.87,-4.446 0,-4.446"
         style="fill:#000000;fill-opacity:1;fill-rule:nonzero;stroke:none"
         id="path56" /><path
         d="m 2555.05,377.773 c -5.93,44.473 10.36,103.477 26.68,145.262 21,53.813 21.55,119.602 15.63,172.961 -23.92,135.547 -88.18,159.082 -97.5,161.699 l -3.91,2.082 c 31.27,41.153 94.35,186.043 103.03,239.583 13,124.98 -21.69,245.48 -21.69,370.44 -134.43,-133.9 -208.15,-401.67 -125.75,-589.116 -52.04,40.168 -125.76,35.703 -177.79,0 -21.68,191.906 -300.27,-31.797 -575.1,-304.375 -121.42,-111.582 222.27,-134.344 381.92,110.976 100.07,197.473 154.93,184.297 149.88,175.664 l -2.61,0.059 c -58.27,-29.461 -98.72,-136.77 -99.7,-182.832 -3.18,-148.446 59.28,-183.809 103.75,-290.547 -80.04,-11.856 -204.1,-17.539 -219.38,-65.215 91.9,-5.937 203.7,16.367 296.47,5.93 -11.86,59.285 -11.86,121.551 65.22,121.551 68.19,0 74.12,-59.297 74.12,-115.625 44.47,-8.899 94.87,-11.856 139.34,-11.856 32.61,0 106.73,-2.969 130.44,11.856 -20.52,27.714 -115.62,41.503 -163.05,41.503"
         style="fill:#ffffff;fill-opacity:1;fill-rule:nonzero;stroke:none"
         id="path58" /><path
         d="m 2557.27,377.773 c -4.84,41.68 5.73,83.946 18.8,123.254 6.12,18.379 13.49,36.043 18.06,54.95 4.85,20.078 7.04,40.8 8.17,61.378 3.75,67.86 -7.75,141.493 -47.58,198.211 -9.62,13.672 -21.48,25.911 -35.44,35.176 -4.05,2.676 -8.36,5 -12.83,6.914 -1.34,0.578 -2.7,1.106 -4.07,1.59 -3.99,1.391 -3.98,0.09 -2.11,2.68 32.46,45.019 53.92,100.586 74.08,151.894 9.46,24.12 18.43,48.68 24.52,73.89 8.7,36.02 5.93,76.4 4,113.08 -4.74,89.98 -22.98,178.71 -23.36,269.01 -0.01,1.93 -2.42,2.95 -3.8,1.57 -74.07,-74.48 -120.79,-174.08 -144.75,-275.45 -24.51,-103.77 -24.18,-217.385 18.66,-316.357 1.02,1.003 2.02,2.019 3.04,3.035 -53.29,39.707 -125.86,36.074 -180.03,0 1.12,-0.633 2.23,-1.27 3.34,-1.914 -3.98,32.832 -17.36,66.062 -53.16,72.89 -41.08,7.824 -86.28,-16.621 -120.65,-35.859 -62.09,-34.766 -118.58,-79.813 -173.01,-125.332 -70.36,-58.836 -137.33,-121.719 -202.92,-185.801 -16.93,-16.531 -38.25,-32.82 -49.95,-53.973 -4.72,-8.527 -6.92,-18.554 -3.74,-27.961 7.56,-22.402 38.85,-27.968 58.85,-30.07 94.38,-9.898 195.23,37.719 266.15,96.106 23.62,19.453 45.19,41.718 63.88,65.929 24.24,31.395 40.27,67.578 60.82,101.375 22.08,36.321 49.26,80.586 87.79,101.922 4.35,2.414 12.63,6.77 17.88,4.445 1.64,-0.722 1.11,1.27 -0.66,0.782 -11,-3.028 -22.42,-15.02 -30.2,-22.813 -38.34,-38.515 -63.94,-98.945 -70.47,-152.508 -6,-49.328 4.22,-104.191 23.35,-149.707 17.51,-41.652 44.3,-78.683 64.87,-118.789 2.98,-5.832 5.79,-11.75 8.55,-17.668 2.33,-5.019 8.61,-11.797 0.78,-12.91 -13.94,-1.972 -27.93,-3.625 -41.9,-5.34 -25.83,-3.183 -51.66,-6.496 -77.25,-11.281 -30.96,-5.801 -82.23,-14.543 -94.62,-49.121 -0.51,-1.434 0.8,-2.734 2.15,-2.812 98.91,-5.84 197.63,16.425 296.47,5.937 1.54,-0.176 2.39,1.523 2.15,2.813 -4.8,24.472 -8.49,50.195 -2.83,74.863 6.48,28.23 29.88,41.25 57.19,43.586 29.6,2.527 56.18,-7.805 69.42,-35.305 11.34,-23.535 11.13,-52.285 11.18,-77.812 0,-0.926 0.68,-1.954 1.64,-2.149 53.21,-10.312 106.95,-11.59 160.97,-12.098 21.65,-0.199 43.31,-0.109 64.91,1.629 15.27,1.231 32.09,2.922 45.61,10.696 1.35,0.769 1.33,2.398 0.45,3.496 -15.79,19.734 -47.33,26.101 -70.52,31.316 -30.68,6.887 -62.65,10.664 -94.1,10.84 -2.87,0.02 -2.87,-4.434 0,-4.453 31.18,-0.164 62.45,-4.16 92.92,-10.684 14.07,-3.008 27.96,-6.953 41.34,-12.254 6.14,-2.433 11.99,-5.48 17.53,-9.054 2.52,-1.621 4.78,-3.594 6.95,-5.664 2.48,-2.371 -0.8,-1.934 -5.07,-3.496 -28.41,-10.481 -63.19,-8.106 -92.99,-7.981 -38.12,0.168 -76.16,0.598 -114.14,4.281 -12.41,1.2 -24.76,2.899 -37.07,4.871 -1.88,0.301 -13.98,0.95 -13.99,4.375 -0.01,3.692 -0.08,7.364 -0.16,11.055 -0.32,14.473 -1.55,28.906 -4.43,43.106 -4.46,22.031 -16.14,44.472 -37.85,53.593 -24.57,10.313 -57.09,9.18 -80.01,-4.941 -18.8,-11.563 -25.29,-33.828 -26.82,-54.551 -1.35,-18.34 1.53,-36.992 4.89,-54.961 -0.26,1.387 -33.29,1.836 -36.54,1.934 -15.37,0.48 -30.76,0.168 -46.13,-0.332 -60.68,-1.973 -121.09,-9.442 -181.85,-9.207 -6.52,0.027 -13.04,0.23 -19.54,0.484 -6.25,0.246 -6.72,0.383 -3.87,5.149 4.52,7.558 12.35,12.832 19.76,17.16 17.18,10.039 37.52,14.851 56.76,19.09 45.34,9.96 91.88,13.281 137.74,19.968 1.58,0.227 1.83,2.114 1.33,3.274 -16.15,38.269 -38.1,73.125 -58.63,109.093 -22.55,39.508 -37.64,80.879 -42.76,126.239 -5.19,46.023 -0.11,87.051 16.88,129.961 8.47,21.406 19.4,41.906 32.53,60.82 6.85,9.855 14.73,18.938 23.4,27.227 5.47,5.234 16.86,16.789 25.22,16.621 0.74,-0.008 1.56,0.429 1.91,1.101 5.65,10.805 -16.38,5.754 -19.54,4.367 -31.94,-13.972 -55.4,-47.824 -74.55,-75.324 -22.59,-32.449 -41.7,-67.273 -59.62,-102.461 -14.71,-28.875 -41.51,-55.34 -64.83,-77.41 -42.9,-40.633 -94.79,-71.699 -150.33,-91.648 -41.16,-14.797 -86.18,-24.094 -130.06,-20.508 -21,1.719 -59.77,9.129 -57.9,37.441 0.96,14.578 13.13,27.391 23.02,36.895 33.88,32.508 67.1,65.691 101.31,97.859 64.01,60.188 129.82,118.77 199.68,172.129 53.53,40.891 113.4,85.547 179.62,102.981 20.47,5.378 43.67,7.078 62.43,-4.368 20.52,-12.539 27.25,-38.867 29.94,-61.093 0.18,-1.532 1.78,-2.957 3.35,-1.922 52.97,35.281 123.4,38.836 175.53,0 2.02,-1.496 3.82,1.277 3.05,3.047 -42.52,98.23 -41.8,210.011 -18.21,312.931 23.04,100.51 70.38,199.85 143.61,273.48 -1.27,0.53 -2.53,1.06 -3.8,1.58 0.29,-67.75 10.22,-134.76 17.6,-201.95 3.68,-33.47 6.38,-67.03 6.95,-100.7 0.47,-27.56 0.53,-56.37 -6.25,-83.22 -10.61,-42 -28.09,-82.76 -45.65,-122.231 -15.25,-34.297 -31.1,-70.547 -53.68,-100.801 -0.71,-0.949 -0.18,-2.531 0.81,-3.046 14.11,-7.481 26.86,-12.957 38.87,-24.422 29.63,-28.332 45.13,-69.153 55.12,-107.969 15,-58.293 13.53,-125.129 -2.82,-182.941 -7.94,-28.067 -19.68,-54.61 -26.47,-83.114 -6.33,-26.574 -9.88,-54.375 -6.72,-81.633 0.33,-2.812 4.78,-2.839 4.45,0"
         style="fill:#000000;fill-opacity:1;fill-rule:nonzero;stroke:none"
         id="path60" /><path
         d="m 2499.36,857.832 c 0.14,-0.027 0.32,-0.078 0.5,-0.137 h 0.34 c -0.35,0.059 -0.63,0.098 -0.84,0.137"
         style="fill:#ffffff;fill-opacity:1;fill-rule:nonzero;stroke:none"
         id="path62" /><path
         d="m 2498.77,855.703 c 0.47,-0.137 0.93,-0.223 1.43,-0.234 2.46,-0.039 3.1,3.957 0.59,4.367 -0.28,0.047 -0.56,0.105 -0.84,0.144 -2.81,0.508 -4.01,-3.781 -1.18,-4.277 0.27,-0.058 0.55,-0.105 0.84,-0.156 0.19,1.465 0.39,2.91 0.59,4.375 -0.52,0.012 0.44,-0.117 -0.25,0.058 -2.78,0.735 -3.96,-3.554 -1.18,-4.277"
         style="fill:#000000;fill-opacity:1;fill-rule:nonzero;stroke:none"
         id="path64" /><path
         d="m 2318.85,681.641 c -18.55,-2.051 -37.09,10.304 -43.28,28.847 4.13,0 12.37,4.129 18.55,2.071 -6.18,14.425 -18.55,32.968 4.12,37.089 -28.85,20.606 -24.73,80.372 10.31,47.395 4.12,24.727 51.51,57.703 51.51,16.484 6.19,37.098 68,37.098 39.15,-12.355 32.97,10.293 57.7,-16.492 28.85,-41.223 22.67,-12.359 10.31,-20.613 8.24,-35.027 0,-2.059 -10.29,-16.484 -12.36,-18.543 -4.13,-6.184 2.07,-16.484 -2.06,-22.668 -12.36,-16.484 -57.7,-30.918 -74.18,-12.371 4.12,-22.656 -35.03,-12.356 -30.91,12.371 l 2.06,-2.07"
         style="fill:#ffffff;fill-opacity:1;fill-rule:nonzero;stroke:none"
         id="path66" /><path
         d="m 2318.85,683.867 c -9.45,-0.527 -17.07,1.524 -25.15,6.399 -5.49,3.3 -9.48,8.523 -12.84,13.797 -5.03,7.941 7.37,7.128 12.67,6.347 2,-0.293 3.35,1.387 2.51,3.274 -4.96,11.132 -16.27,29.089 2.79,33.828 1.49,0.359 2.33,2.664 0.98,3.711 -11.07,8.582 -17.2,21.172 -18.38,35.039 -0.48,5.547 0.3,11.804 4.03,16.16 5.99,6.953 17.27,-3.164 21.52,-6.953 1.17,-1.043 3.33,-0.742 3.71,0.984 4.17,19.094 45.74,54.875 47.15,17.074 0.09,-2.414 3.84,-3.136 4.36,-0.586 2.86,13.758 13.34,24.207 27.74,24.801 21.58,0.903 13.35,-24.617 7.36,-35.457 -0.95,-1.699 0.59,-3.769 2.51,-3.262 11.66,3.094 23.64,3.418 33.43,-4.687 12.12,-10.066 1.55,-25.039 -6.75,-32.813 -1.06,-0.996 -0.75,-2.773 0.45,-3.496 9.19,-5.488 14.12,-10.8 10.45,-21.425 -1.5,-4.336 -2.2,-9.493 -4.33,-13.497 -4.24,-8.007 -11.99,-13.535 -12.83,-22.851 -0.68,-7.43 2.93,-12.43 -3.49,-18.875 -5.9,-5.91 -14.49,-9.524 -22.15,-12.336 -14.15,-5.195 -33.62,-7.578 -45.32,3.879 -1.27,1.238 -4.02,0.437 -3.8,-1.582 1.32,-11.867 -8.85,-11.543 -16.44,-7.766 -7.72,3.848 -10.82,11.953 -10.02,20.137 -1.26,-0.527 -2.53,-1.055 -3.79,-1.57 0.68,-0.696 1.37,-1.379 2.05,-2.071 2.04,-2.035 5.18,1.121 3.15,3.153 -0.69,0.683 -1.37,1.367 -2.06,2.05 -1.47,1.485 -3.61,0.286 -3.79,-1.562 -2.4,-24.375 38.27,-38.66 35.35,-12.371 -1.26,-0.52 -2.53,-1.047 -3.79,-1.574 17.48,-17.118 47.55,-8.243 66,2.629 8.56,5.046 13.95,10.679 13.22,20.886 -1.03,14.395 9.06,18.457 13.1,31.055 2.1,6.543 7.61,17.629 4.48,24.602 -2.12,4.714 -5.33,7.332 -9.41,10.339 -1.11,0.832 7.66,14.278 8.59,16.809 9.63,26.07 -27.05,31.59 -43.48,27.227 0.83,-1.094 1.67,-2.18 2.5,-3.262 7.6,13.738 14.52,37.176 -6.85,41.765 -17.56,3.77 -33.07,-11.816 -36.36,-27.695 1.46,-0.195 2.9,-0.391 4.37,-0.594 -1.64,43.739 -50.45,9.012 -55.89,-15.89 1.24,0.324 2.48,0.656 3.72,0.976 -10.24,9.121 -25.78,16.758 -31.93,-0.39 -6.21,-17.344 4.98,-39.676 18.48,-50.149 0.33,1.242 0.65,2.485 0.98,3.723 -23.05,-5.723 -12.35,-24.863 -5.45,-40.359 0.84,1.082 1.67,2.175 2.51,3.261 -7.09,1.043 -12.74,-1.078 -19.73,-2.062 -1.12,-0.157 -1.96,-1.707 -1.55,-2.735 7.51,-19.265 24.41,-31.66 45.42,-30.488 2.85,0.164 2.86,4.617 0,4.453"
         style="fill:#000000;fill-opacity:1;fill-rule:nonzero;stroke:none"
         id="path68" /><path
         d="m 2341.35,774.375 c -1.86,-14.902 2.66,-20.293 17.24,-14.512 -0.91,0.918 -1.82,1.836 -2.73,2.735 -5.86,-19.551 -3.3,-50.059 20.09,-56.309 2.78,-0.742 3.96,3.555 1.18,4.285 -20.92,5.598 -22.11,33.742 -16.99,50.852 0.46,1.496 -1.12,3.371 -2.73,2.734 -9.99,-3.965 -12.77,0.899 -11.61,10.215 0.36,2.844 -4.1,2.805 -4.45,0 v 0"
         style="fill:#ffffff;fill-opacity:1;fill-rule:nonzero;stroke:none"
         id="path70" /><path
         d="m 1322.12,1781.63 c -29.07,-35.67 -64.74,-67.37 -87.2,-107.01 -19.82,-34.35 -31.71,-71.35 -40.96,-109.66 -15.85,-72.66 -6.6,-159.86 29.07,-225.92 19.82,-36.99 43.6,-76.62 75.31,-104.37 11.89,11.89 13.21,36.99 18.5,52.85 5.28,21.13 13.2,40.96 19.81,62.09 10.57,35.67 13.21,73.98 19.82,110.98 14.53,71.34 26.42,159.86 1.32,229.89 -5.29,11.88 -27.75,80.59 -35.67,91.15"
         style="fill:#ffffff;fill-opacity:1;fill-rule:nonzero;stroke:none"
         id="path72" /><path
         d="m 1320.54,1783.2 c -34.27,-41.57 -73.34,-77.54 -97.59,-126.44 -22.67,-45.73 -35.91,-97.56 -38.37,-148.47 -2.44,-50.47 6.43,-101.98 26.02,-148.54 19.36,-46.04 48.84,-93.15 86.17,-126.65 0.85,-0.78 2.31,-0.94 3.14,0 13.02,14.81 13.52,35.74 19.07,53.83 8.95,29.18 19.87,58.06 26.18,87.96 6.25,29.65 8.38,60 14.38,89.68 5.23,25.98 9.44,52.15 12.26,78.49 5.36,50.2 5.2,104.3 -13.48,151.96 -6.06,15.49 -11.28,31.34 -17,46.96 -4.88,13.33 -9.16,28.94 -17.28,40.77 -1.61,2.36 -5.47,0.13 -3.84,-2.24 13.25,-19.3 19.2,-46.12 27.01,-67.98 11.05,-30.93 19.85,-60.43 22.2,-93.58 3.09,-43.31 -2.3,-87.09 -9.72,-129.68 -7.46,-42.77 -12.07,-86.63 -22.37,-128.81 -5.13,-21.01 -13.57,-41.16 -19.78,-61.87 -5.35,-17.83 -7.33,-37.3 -15.14,-54.25 -5.28,-11.46 -15.33,4.15 -19.94,9.12 -7.79,8.43 -14.73,17.61 -21.43,26.92 -12.65,17.59 -23.43,36.51 -33.77,55.51 -41.31,75.83 -48.14,166.55 -25.81,249.24 10.05,37.23 24.5,73.44 46.18,105.5 21.93,32.44 51.23,59.31 76.06,89.43 1.81,2.2 -1.32,5.36 -3.15,3.14"
         style="fill:#000000;fill-opacity:1;fill-rule:nonzero;stroke:none"
         id="path74" /><path
         d="m 1289.43,831.23 c 77.94,12.083 89.13,27.09 89.13,27.09 34.82,-87.968 56.55,-180.625 40.74,-294.472 1.55,23.281 40.35,57.422 52.76,24.836 46,33.804 74.5,-11.633 55.88,-50.422 26.38,-3.106 46.22,-27.606 39.53,-56.328 -6.92,-29.649 -34.04,-37.278 -54.21,-43.485 17.09,-41.769 -7.28,-59.855 -20.9,-69.172 -20.17,-12.422 -54.45,-0.957 -65.31,26.973 0,-13.965 4.66,-35.691 -1.55,-49.668 -7.75,-20.168 -29.48,-23.269 -52.76,-23.269 -43.45,1.55 -356.7,8.406 -356.7,8.406 -0.26,20.761 45.05,46.316 76.09,49.414 46.56,4.668 97.3,-6.77 142.3,0.984 -51.21,27.942 -105.33,74.66 -137.92,128.977 -24.83,41.894 -30.39,86.047 -31.04,136.562 -0.68,53.145 38.13,184.121 97.67,211.692 0,0 66.17,-37.453 126.29,-28.118"
         style="fill:#ffffff;fill-opacity:1;fill-rule:nonzero;stroke:none"
         id="path76" /><path
         d="m 1290.02,829.074 c 25.2,4.012 51.03,8.543 74.7,18.477 4.96,2.078 11.92,4.746 15.41,9.207 -1.24,0.32 -2.48,0.644 -3.71,0.976 37.17,-94.589 54.23,-192.519 40.65,-293.886 1.48,0 2.97,0 4.45,0 2.46,19.98 35.27,53.855 48.62,23.711 0.47,-1.043 2.13,-1.426 3.05,-0.801 14.8,10.246 33.57,17.48 48.49,3.43 13.58,-12.786 11.09,-35.5 4.34,-50.801 -0.52,-1.172 -0.23,-3.02 1.32,-3.274 28.55,-4.55 44.51,-29.832 36.86,-57.675 -6.4,-23.29 -31.04,-31.543 -51.52,-37.833 -1.09,-0.339 -2,-1.582 -1.56,-2.742 9.68,-25.578 5.85,-47.843 -16.43,-64.25 -23.73,-17.48 -55.18,-0.41 -65.71,23.758 -0.91,2.094 -4.19,0.969 -4.14,-1.121 0.46,-19.336 6.31,-41.062 -6.66,-57.723 -10.36,-13.312 -32.95,-13.41 -48.18,-12.902 -14.04,0.469 -28.09,0.801 -42.13,1.152 -48.34,1.231 -96.69,2.336 -145.03,3.438 -45.14,1.035 -90.27,2.043 -135.4,3.047 -10.03,0.215 -20.07,0.429 -30.1,0.652 -2.92,0.07 1.03,-0.309 1.5,1.899 1.61,7.41 8.72,13.328 14.2,17.996 14.59,12.421 34.03,20.214 52.57,24.14 24.23,5.125 51.1,1.797 75.57,0.442 24.7,-1.379 49.32,-2.246 73.85,1.589 1.95,0.293 2.1,3.196 0.53,4.063 -63.17,35 -124.84,89.922 -151.72,158.437 -21.77,55.489 -20.07,119.063 -4.76,175.801 12.81,47.461 34.56,107.278 77.95,135.246 7.01,4.508 6.87,2.723 14.67,-1.047 9.61,-4.656 19.56,-8.621 29.61,-12.207 28.37,-10.097 58.72,-15.253 88.71,-11.199 2.84,0.391 1.62,4.676 -1.17,4.285 -36.01,-4.863 -72.22,4.485 -105.21,18.547 -6.54,2.782 -13.02,5.848 -19.25,9.285 -4.07,2.247 -14.15,-6.718 -17.08,-9.062 -41.1,-32.871 -61.51,-90.359 -74.36,-139.59 -14.9,-57.156 -13.34,-120.43 8.35,-175.715 26.47,-67.469 90.04,-122.293 152.01,-156.629 0.18,1.36 0.36,2.715 0.54,4.075 -49.61,-7.747 -100.02,6.355 -149.42,-2.043 -23.42,-3.965 -68.71,-21.993 -70.62,-50.508 -0.08,-1.231 1.07,-2.196 2.23,-2.215 71.41,-1.574 142.83,-3.176 214.24,-4.824 41.16,-0.95 82.3,-1.899 123.45,-3.02 17.39,-0.469 34.95,-1.699 51.81,3.582 31.68,9.934 24.35,45.727 23.74,71.008 -1.38,-0.371 -2.76,-0.742 -4.14,-1.113 17.55,-40.293 77.63,-44.676 93.18,0.078 3.99,11.445 3.33,22.617 0.41,34.258 -1.14,4.558 -4.14,7.05 1.05,8.664 3.13,0.965 6.22,2.039 9.3,3.125 5.53,1.961 10.8,4.461 15.92,7.332 20.9,11.719 32.7,39.679 22.52,62.336 -5.02,11.199 -12.75,19.226 -23.57,24.961 -2.16,1.14 -12.9,3.711 -12.3,5.32 2.21,6.047 3.55,11.973 4.17,18.352 1.81,18.632 -9.6,42.273 -30.63,43.066 -4.98,0.184 -9.3,-0.391 -14.12,-1.594 -2.78,-0.691 -18.3,-8.484 -18.57,-7.879 -3.48,7.84 -11.07,11.59 -19.29,10.977 -18.32,-1.399 -34.08,-23.528 -36.14,-40.285 -0.35,-2.852 4.08,-2.782 4.45,0 13.63,101.797 -3.49,200.09 -40.81,295.078 -0.54,1.347 -2.57,2.441 -3.72,0.976 -3.4,-4.355 -10.47,-6.816 -15.29,-8.836 -22.95,-9.64 -48.44,-13.808 -72.85,-17.707 -2.83,-0.449 -1.63,-4.738 1.17,-4.285"
         style="fill:#000000;fill-opacity:1;fill-rule:nonzero;stroke:none"
         id="path78" /><path
         d="m 1482.79,1099.92 c 23.89,-95 10.34,-177.361 -80.49,-227.986 -89.33,-49.141 -177.22,-60.313 -271.62,7.949 -30.41,21.98 -55.94,86.328 -56,133.997 -0.05,44.67 6.87,94.52 27.72,129.54 32.11,53.92 135.87,113.46 204.35,89.63 0,0 -29.77,92.7 -43.18,135.88 -26.8,84.87 -17.86,178.67 14.9,260.56 17.86,46.15 87.14,131.02 113.93,165.27 0,-31.26 -6.78,-86.81 3.64,-128.51 19.35,-77.42 30.26,-146.9 27.27,-227.3 -2.98,-69.99 -20.09,-150.67 -66.24,-204.28 0,0 105.47,-54.22 125.72,-134.75"
         style="fill:#ffffff;fill-opacity:1;fill-rule:nonzero;stroke:none"
         id="path80" /><path
         d="m 1480.65,1099.34 c 16.64,-67.62 16.01,-140.297 -35.48,-192.922 -28.49,-29.102 -68.81,-47.695 -106.91,-60.352 -39.65,-13.175 -81.58,-15.546 -122.18,-5.519 -39.45,9.766 -83.65,31.855 -106.66,66.398 -20.44,30.684 -31.94,70.196 -32.52,106.935 -0.65,42.07 5.32,87.05 25.23,124.61 15.65,29.52 45.03,51.58 73.22,68.13 38.03,22.33 87.21,38.47 130.82,24.29 1.58,-0.52 3.24,1.16 2.73,2.72 -10.5,32.72 -20.95,65.45 -31.34,98.21 -7.66,24.18 -15.76,48.22 -20.88,73.07 -6.99,33.9 -7.93,68.83 -5.16,103.23 4.75,59.15 22.43,117.28 54.59,167.19 26.53,41.21 57.66,79.32 87.87,117.85 -1.27,0.53 -2.54,1.06 -3.8,1.58 -0.29,-41.69 -5.67,-83.42 2.7,-124.74 10.75,-53.14 23.27,-104.63 27.15,-158.99 6.61,-92.46 -2.4,-200.91 -64.54,-274.79 -0.86,-1.03 -0.9,-2.78 0.45,-3.49 52.81,-27.31 108.83,-74.2 124.71,-133.41 0.74,-2.78 5.03,-1.6 4.29,1.17 -13.72,51.16 -55.54,89.68 -97.93,118.55 -6.94,4.73 -14.08,9.18 -21.34,13.39 -1.94,1.12 -3.88,2.21 -5.85,3.27 -2.86,1.56 1.91,1.07 4.44,4.22 21.12,26.29 34.65,58.06 44.27,90.14 22.01,73.46 21.47,154.22 10.97,229.53 -2.98,21.38 -6.8,42.6 -11.22,63.73 -4.57,21.84 -11.21,43.36 -14,65.53 -4.42,35.17 0.1,70.62 0.35,105.89 0.01,1.78 -2.56,3.16 -3.8,1.57 -29.67,-37.84 -59.85,-75.35 -86.43,-115.47 -31.4,-47.4 -48.21,-100.88 -55.67,-157.13 -8.4,-63.34 2.27,-122.49 21.27,-182.69 11.43,-36.24 23,-72.41 34.61,-108.58 0.91,0.92 1.83,1.82 2.74,2.74 -59.16,19.23 -126.52,-13.54 -171.44,-50.73 -53.67,-44.46 -68.82,-119.59 -62.56,-186.56 3.04,-32.637 14.8,-65.527 32.23,-93.203 18.28,-29.043 50.6,-46.133 81.37,-59.109 72.87,-30.735 149.65,-11.868 216.48,24.414 39.07,21.218 69.8,54.453 83.74,96.953 14.12,43.045 8.37,90.455 -2.23,133.545 -0.69,2.78 -4.98,1.6 -4.29,-1.17"
         style="fill:#000000;fill-opacity:1;fill-rule:nonzero;stroke:none"
         id="path82" /><path
         d="m 1144.5,1089.53 c -11.74,1.31 -19.56,-26.07 -15.65,-36.5 15.65,-37.8 46.93,24.77 18.25,35.19 l -2.6,1.31"
         style="fill:#1a171b;fill-opacity:1;fill-rule:nonzero;stroke:none"
         id="path84" /><path
         d="m 1144.5,1091.76 c -14.27,0.49 -18.88,-21.96 -18.89,-32.55 0,-9.42 7.83,-23.06 18.87,-19.86 9.87,2.86 15.11,16.46 16.2,25.54 0.68,5.75 0.14,11.36 -2.44,16.57 -2.63,5.34 -7.61,7.49 -12.63,10 -2.55,1.27 -4.81,-2.56 -2.23,-3.84 8.65,-4.34 13.29,-8.93 13.15,-19.2 -0.11,-8.17 -3.68,-17.15 -9.74,-22.68 -8.24,-7.52 -15.91,4.49 -16.66,12.08 -0.81,8.16 3.14,29.88 14.37,29.48 2.86,-0.08 2.86,4.36 0,4.46"
         style="fill:#000000;fill-opacity:1;fill-rule:nonzero;stroke:none"
         id="path86" /><path
         d="m 1066.05,661.641 c -3.71,62.226 58.38,160.156 58.38,160.156 7.68,1.289 27.15,-17.695 33.27,-25.598 28.79,-37.117 32.01,-67.84 43.53,-99.832 24.32,-70.398 14.08,-151.043 -21.76,-216.328 -5.12,-7.676 -17.29,-33.848 -24.06,-40.476 -89.52,81.433 -84.8,145.488 -89.36,222.078"
         style="fill:#f4b1a6;fill-opacity:1;fill-rule:nonzero;stroke:none"
         id="path88" /><path
         d="m 1067.16,661.641 c -2.26,54.308 28.52,110.449 55.82,155.683 5.46,9.043 18.17,-5.793 23.41,-10.625 15.97,-14.765 27.08,-34.543 35.36,-54.414 6.5,-15.613 10.54,-32.156 15.68,-48.242 6.96,-21.797 12.7,-42.813 14.94,-65.703 4.2,-42.918 -3.6,-86.516 -19.14,-126.516 -6.37,-16.414 -15.19,-31.414 -23.46,-46.875 -3.39,-6.375 -6.86,-12.703 -10.7,-18.804 -5.67,-9.004 -22,12.793 -26.3,17.39 -25.7,27.422 -44.98,59.727 -54.75,96.094 -7.93,29.57 -8.7,60.574 -10.25,90.976 -0.2,3.68 -0.41,7.356 -0.61,11.036 -0.09,1.425 -2.31,1.425 -2.23,0 2.14,-36.817 2.64,-73.809 12.87,-109.512 12.91,-45.09 42.9,-82.059 76.83,-113.348 0.42,-0.402 1.15,-0.461 1.58,0 6.55,7.254 10.9,16.492 15.49,25.047 6.76,12.598 13.85,24.883 19.72,37.949 13.72,30.528 21.28,63.594 23.66,96.895 2.36,33.125 -2.29,66.543 -12.78,97.988 -9.91,29.719 -17.23,59.59 -33.96,86.465 -8.13,13.027 -26.4,39.551 -43.91,39.785 -3.95,0.059 -13.1,-21.258 -14.67,-24.101 -22.49,-40.743 -46.81,-89.454 -44.83,-137.168 0.07,-1.426 2.28,-1.438 2.23,0"
         style="fill:#000000;fill-opacity:1;fill-rule:nonzero;stroke:none"
         id="path90" /><path
         d="m 1063.62,987.031 c 8.38,3.965 20.95,9.883 27.63,3.067 5,-6.504 3.78,-32.969 -4.81,-36.192 -6.39,-2.597 -12.96,6.629 -16.6,11.133 -8.04,8.82 -11.37,15 -1.09,23.438 l -5.13,-1.446"
         style="fill:#e9635f;fill-opacity:1;fill-rule:nonzero;stroke:none"
         id="path92" /><path
         d="m 1064.18,986.074 c 7.15,3.371 23.85,11.875 27.71,0.012 2.07,-6.359 1.41,-14.113 0.14,-20.539 -0.65,-3.27 -1.8,-6.57 -3.94,-9.16 -4.57,-5.469 -11.34,2.109 -14.24,5.429 -2.87,3.313 -5.85,6.758 -8.31,10.372 -4.18,6.14 -0.86,11.218 4,15.507 0.85,0.762 -0.05,2.149 -1.08,1.868 -1.71,-0.489 -3.42,-0.969 -5.14,-1.458 -1.38,-0.39 -0.78,-2.539 0.59,-2.136 1.72,0.476 3.43,0.965 5.13,1.441 -0.36,0.617 -0.72,1.242 -1.08,1.867 -3.32,-2.949 -7.42,-6.98 -6.69,-11.933 0.95,-6.367 5.99,-10.84 9.84,-15.653 6.08,-7.617 15.8,-14.211 21.23,-2.558 3.91,8.387 4.43,21.062 0.93,29.637 -4.73,11.63 -23.07,2.589 -30.21,-0.782 -1.3,-0.605 -0.17,-2.519 1.12,-1.914"
         style="fill:#000000;fill-opacity:1;fill-rule:nonzero;stroke:none"
         id="path94" /><path
         d="m 2937.26,1340.32 c -29.21,41.72 -58.41,104.3 -77.18,152.28 -20.87,54.24 18.77,91.79 66.74,110.56 45.91,16.7 91.79,16.7 116.83,-27.11 25.03,-39.64 37.54,-87.62 47.97,-133.51 20.86,-83.45 29.47,-246.33 29.54,-246.97 53.37,35.57 128.96,40.02 182.32,0 -84.48,186.77 -8.89,453.58 128.96,586.98 0,-124.5 35.57,-244.57 22.23,-369.08 -8.89,-53.36 -69.22,-183.55 -101.28,-224.56 0,0 43.04,-20.36 63.6,-76 96.99,-262.508 -215.78,-410.937 -375.88,-201.933 -53.36,71.152 -26.7,190.583 35.58,266.793 0.28,0.36 -101.89,110.41 -139.43,162.55"
         style="fill:#ffffff;fill-opacity:1;fill-rule:nonzero;stroke:none"
         id="path96" /><path
         d="m 2939.18,1341.45 c -23.4,33.88 -41.91,70.93 -58.78,108.41 -16.94,37.66 -37,77.09 -7.79,114.16 22.68,28.78 63.81,44.35 99.34,47.03 17.44,1.33 34.46,-2.66 48.99,-12.4 18.1,-12.13 28.57,-35.73 37.38,-54.86 30.32,-65.82 41.21,-142.48 49.36,-213.95 5.05,-44.39 8.65,-88.98 11.21,-133.59 0.02,-0.23 0.04,-0.45 0.06,-0.68 0.09,-1.59 1.83,-2.89 3.34,-1.92 54.39,35.22 126.5,38.8 180.07,0 2.02,-1.45 3.84,1.25 3.04,3.05 -43.5,97.62 -42.87,209.22 -18.67,311.78 23.78,100.76 72.74,199.68 147.27,272.5 -1.25,0.52 -2.52,1.05 -3.79,1.57 0.28,-63.78 9.36,-126.89 16.78,-190.11 3.69,-31.46 6.68,-62.99 7.97,-94.67 1.19,-29.53 2.34,-61.62 -3.79,-90.67 -8.36,-39.7 -26.01,-78.23 -42.87,-114.87 -16.1,-34.99 -33.25,-71.52 -56.84,-102.19 -0.7,-0.92 -0.19,-2.57 0.81,-3.05 51.17,-24.71 72.01,-87.52 78.88,-139.82 6.98,-53.139 -4.94,-107.326 -36.5,-150.908 -61.9,-85.461 -182.22,-103.203 -272.1,-54.035 -50.69,27.722 -95.38,75.128 -105.5,133.261 -12.24,70.222 17.7,146.582 61.21,200.722 0.63,0.78 0.9,1.76 0.35,2.7 -3.67,6.19 -10.38,11.64 -15.17,16.93 -12.83,14.17 -25.63,28.39 -38.33,42.68 -29.62,33.34 -59.72,66.8 -85.93,102.93 -1.66,2.29 -5.53,0.07 -3.85,-2.25 32.93,-45.36 71.35,-86.98 108.79,-128.59 10.24,-11.39 20.9,-22.48 30.81,-34.15 -2.14,2.52 -25.11,-33.57 -27.04,-36.93 -8.89,-15.38 -16.05,-31.72 -22.11,-48.4 -20.68,-57.08 -25.53,-131.091 13.77,-181.724 33.33,-42.968 77.36,-76.183 129.96,-91.34 89.4,-25.761 189.38,10.723 238.48,90.137 26.15,42.305 34.15,94.257 27.07,143.067 -7.75,53.29 -28.54,109.3 -77.27,137.79 -0.94,0.56 -1.91,1.08 -2.89,1.58 2.74,-1.4 3.64,1.42 5.92,4.67 4.98,7.07 9.45,14.49 13.86,21.94 11.16,18.9 21.12,38.54 30.66,58.32 19,39.36 37.06,80.33 48.29,122.68 6.58,24.88 6.27,51.59 6.25,77.14 -0.02,33.56 -2.99,67.05 -6.56,100.38 -7.4,68.87 -18.36,137.36 -18.65,206.78 -0.02,1.95 -2.42,2.92 -3.8,1.57 -75.4,-73.65 -123.72,-172.85 -148.43,-274.45 -25.14,-103.38 -24.69,-216.88 19.12,-315.22 1.02,1.01 2.03,2.03 3.05,3.04 -54.75,39.65 -128.97,36 -184.57,0 1.11,-0.64 2.23,-1.28 3.34,-1.92 -7.47,108.06 -14.63,218.18 -49.77,321.51 -10.59,31.12 -25.21,68.51 -53.55,87.5 -25.04,16.77 -58.5,11.83 -85.49,3.58 -28.14,-8.61 -55.66,-25.45 -71.91,-50.45 -18.51,-28.45 -7.95,-58.51 3.92,-87.05 18.95,-45.53 40.69,-90.78 68.75,-131.46 1.62,-2.34 5.49,-0.13 3.85,2.25"
         style="fill:#000000;fill-opacity:1;fill-rule:nonzero;stroke:none"
         id="path98" /><path
         d="m 3134.35,1033.78 c -7.83,-11.73 -9.14,-44.327 14.34,-37.803 22.16,7.823 7.81,49.533 -10.44,37.803 h -3.9"
         style="fill:#1a171b;fill-opacity:1;fill-rule:nonzero;stroke:none"
         id="path100" /><path
         d="m 3132.42,1034.9 c -5.6,-8.94 -7.73,-23.16 -3.1,-32.94 5.11,-10.788 18.3,-11.452 26.81,-4.011 8.58,7.491 6.9,21.771 2.11,30.741 -2.26,4.23 -5.97,7.63 -10.57,9.02 -4.72,1.41 -8.78,-1.71 -13.32,-1.71 -2.87,0 -2.87,-4.45 0,-4.45 7.58,0 12.88,4.64 18.72,-3 5.22,-6.83 6.34,-17.48 2.01,-24.94 -2.93,-5.005 -9.31,-6.977 -14.75,-5.993 -4.76,0.879 -7.01,5.513 -8.12,9.703 -2.15,8.06 -0.33,18.32 4.06,25.34 1.52,2.44 -2.32,4.66 -3.85,2.24"
         style="fill:#000000;fill-opacity:1;fill-rule:nonzero;stroke:none"
         id="path102" /><path
         d="m 3309.04,1035.09 c -11.74,1.3 -19.55,-26.09 -15.65,-36.504 15.65,-37.813 46.94,24.764 18.25,35.194 l -2.6,1.31"
         style="fill:#1a171b;fill-opacity:1;fill-rule:nonzero;stroke:none"
         id="path104" /><path
         d="m 3309.04,1037.3 c -14.27,0.49 -18.88,-21.95 -18.88,-32.54 0,-9.428 7.83,-23.061 18.86,-19.858 9.87,2.852 15.12,16.458 16.19,25.538 0.69,5.74 0.15,11.36 -2.44,16.58 -2.63,5.32 -7.6,7.48 -12.61,9.98 -2.56,1.28 -4.81,-2.55 -2.25,-3.84 8.67,-4.32 13.3,-8.92 13.16,-19.2 -0.11,-8.16 -3.67,-17.144 -9.74,-22.671 -8.24,-7.519 -15.9,4.484 -16.66,12.071 -0.8,8.16 3.14,29.88 14.37,29.5 2.86,-0.09 2.85,4.35 0,4.44"
         style="fill:#000000;fill-opacity:1;fill-rule:nonzero;stroke:none"
         id="path106" /><path
         d="m 3200.84,903.418 c 10.41,1.301 24.77,7.812 35.2,5.215 16.94,-5.215 18.24,-22.168 6.51,-35.203 -19.56,-23.457 -45.64,9.129 -41.71,28.679 v 1.309"
         style="fill:#e9635f;fill-opacity:1;fill-rule:nonzero;stroke:none"
         id="path108" /><path
         d="m 3201.13,902.344 c 12.52,1.914 26.17,9.258 38.58,3.625 16.06,-7.297 8.3,-26.028 -1.08,-35 -9.52,-9.114 -21.56,-2.942 -28.73,5.457 -6.94,8.125 -7.96,16.887 -7.96,26.992 0,1.437 -2.22,1.437 -2.22,0 0,-12.891 2.64,-23.27 12.39,-32.566 9.04,-8.633 20.8,-8.45 29.67,0.054 9.18,8.782 13.51,23.196 4.2,33.313 -11.7,12.726 -31.74,2.363 -45.43,0.273 -1.43,-0.215 -0.82,-2.363 0.58,-2.148"
         style="fill:#000000;fill-opacity:1;fill-rule:nonzero;stroke:none"
         id="path110" /><path
         d="m 3224.69,862.996 c -0.08,-15.262 -1.72,-31.375 2.67,-46.219 0.82,-2.734 5.12,-1.562 4.3,1.184 -4.28,14.422 -2.6,30.195 -2.53,45.035 0.01,2.871 -4.42,2.863 -4.44,0 v 0"
         style="fill:#000000;fill-opacity:1;fill-rule:nonzero;stroke:none"
         id="path112" /><path
         d="m 3102.23,1185.63 c -14.42,16.64 -32.17,33.28 -48.81,48.8 -32.17,28.85 -51.03,63.25 -75.43,97.63 -21.09,31.07 -43.27,74.33 -28.85,113.15 6.66,16.65 17.52,1.19 30.94,-12.2 22.75,-22.72 27.3,-27.02 40.64,-38.89 35.98,-32.03 38.19,-61.6 54.83,-105.98 12.2,-33.28 22.24,-69.23 30.02,-103.63 l -3.34,1.12"
         style="fill:#f4b1a6;fill-opacity:1;fill-rule:nonzero;stroke:none"
         id="path114" /><path
         d="m 3103.03,1186.42 c -17.64,19.99 -37.44,37.64 -56.59,56.12 -20.83,20.11 -36.76,44.73 -52.79,68.64 -15.7,23.41 -31.81,45.77 -41.54,72.5 -4.98,13.68 -7.02,28.13 -6.13,42.63 0.67,10.69 9.27,29.84 22.94,16.63 4.87,-4.7 9.4,-9.76 14.21,-14.54 12.01,-11.99 24.14,-23.78 36.8,-35.08 18.78,-16.74 30.73,-36.95 39.21,-60.42 8.42,-23.29 16.38,-46.92 24.08,-70.44 4.51,-13.79 8.5,-27.73 12.29,-41.74 1.87,-6.95 3.61,-13.94 5.33,-20.93 0.66,-2.68 4.94,-14.18 1.69,-13.09 -1.36,0.45 -1.94,-1.7 -0.59,-2.15 1.11,-0.37 2.22,-0.74 3.33,-1.11 0.84,-0.28 1.55,0.58 1.37,1.36 -7.64,33.38 -16.8,66.33 -28.2,98.64 -8.4,23.81 -15.12,48.7 -26.03,71.52 -9.95,20.81 -26.32,35.45 -42.93,50.82 -7.27,6.73 -14.27,13.73 -21.3,20.72 -7.72,7.66 -16.8,21.68 -27.21,25.8 -18.16,7.17 -17.77,-30.86 -17.28,-40.37 1.43,-27.61 16.11,-54.02 30.8,-76.64 16.6,-25.57 33.75,-51.42 52.92,-75.12 22.14,-27.38 50.74,-48.91 74.04,-75.33 0.95,-1.08 2.51,0.49 1.58,1.58"
         style="fill:#000000;fill-opacity:1;fill-rule:nonzero;stroke:none"
         id="path116" /><path
         d="m 3319.67,1200.05 c -9.98,13.31 -12.21,47.69 -15.53,65.44 -5.55,31.07 -5.55,64.35 -3.33,95.42 2.22,33.28 13.31,64.34 32.18,90.97 24.4,33.28 70.99,45.48 75.43,-5.55 4.45,-51.04 -12.2,-109.83 -31.06,-156.43 -4.43,-12.2 -48.81,-96.51 -56.58,-94.29 l -1.11,4.44"
         style="fill:#f4b1a6;fill-opacity:1;fill-rule:nonzero;stroke:none"
         id="path118" /><path
         d="m 3320.64,1200.61 c -12.94,19.41 -12.53,47.98 -16.3,70.38 -5.93,35.28 -5.82,74.01 -0.06,109.3 4.89,30.02 18.63,62.6 41.12,83.66 20.79,19.43 52.88,23.2 60.79,-9.79 7.76,-32.36 -1.25,-71.05 -9.28,-102.47 -6.28,-24.58 -14.43,-49.42 -25.54,-72.28 -7.99,-16.4 -16.76,-32.46 -25.88,-48.26 -4.58,-7.95 -9.35,-15.79 -14.49,-23.37 -2.29,-3.37 -8.44,-14.71 -10.26,-7.44 -0.35,1.4 -2.48,0.8 -2.15,-0.58 0.37,-1.49 0.75,-2.96 1.12,-4.45 0.13,-0.49 0.58,-0.79 1.07,-0.82 8.89,-0.49 20.2,24.64 23.56,30.31 11.36,19.03 22.01,38.67 31.45,58.72 13.7,29.08 22.73,61.34 29.01,92.75 5.55,27.77 13.19,68.33 -2.63,93.98 -9.98,16.21 -30.74,12.43 -44.9,4.96 -25.88,-13.65 -40.31,-44.27 -49.24,-70.63 -12.52,-36.9 -11.49,-79.81 -7.91,-118.1 1.43,-15.32 4.39,-30.56 6.62,-45.78 2.03,-13.89 4.02,-29.27 11.97,-41.22 0.79,-1.18 2.72,-0.07 1.93,1.13"
         style="fill:#000000;fill-opacity:1;fill-rule:nonzero;stroke:none"
         id="path120" /><path
         d="m 3229.51,812.09 c -80.97,0 -141.36,50.906 -141.36,50.906 -58.27,-29.449 -98.72,-136.766 -99.7,-182.82 -3.18,-148.457 59.3,-183.809 103.76,-290.547 -80.04,-11.856 -204.1,-17.539 -219.38,-65.215 91.9,-5.937 203.69,16.367 296.47,5.918 -11.86,59.297 -11.86,121.563 65.21,121.563 68.2,0 74.12,-59.297 74.12,-115.625 44.48,-8.899 94.87,-11.856 139.34,-11.856 32.62,0 106.74,-2.969 130.45,11.856 -20.51,27.714 -115.62,41.503 -163.05,41.503 -5.94,44.473 10.37,103.477 26.68,145.274 21,53.801 21.54,119.59 15.62,172.949 -27.88,158.02 -110.6,163.82 -97.15,161.699 0,0 -61.09,-45.605 -131.01,-45.605"
         style="fill:#ffffff;fill-opacity:1;fill-rule:nonzero;stroke:none"
         id="path122" /><path
         d="m 3229.51,814.316 c -49.1,0.625 -101.7,18.438 -139.78,50.254 -0.8,0.672 -1.74,0.852 -2.7,0.352 -50.41,-26.688 -78.51,-89.719 -93.39,-141.934 -16.43,-57.734 -7.08,-124.785 15.28,-179.707 10.24,-25.156 24.22,-48.535 38.05,-71.828 7.23,-12.176 14.38,-24.39 21.16,-36.824 2.2,-4.063 20.83,-43.242 19.94,-43.379 -60.75,-8.848 -127.41,-9.453 -184.2,-35 -14.2,-6.379 -27.76,-16.121 -33.19,-31.25 -0.51,-1.445 0.8,-2.734 2.15,-2.812 98.91,-5.84 197.64,16.417 296.47,5.917 1.54,-0.156 2.38,1.543 2.15,2.833 -4.8,24.472 -8.5,50.195 -2.84,74.863 6.49,28.23 29.89,41.25 57.19,43.586 29.61,2.527 56.19,-7.805 69.43,-35.305 11.33,-23.535 11.12,-52.285 11.18,-77.812 0.02,-0.926 0.67,-1.954 1.64,-2.149 53.2,-10.312 106.95,-11.601 160.97,-12.098 21.64,-0.207 43.3,-0.109 64.91,1.629 15.27,1.231 32.09,2.922 45.62,10.696 1.35,0.769 1.33,2.39 0.45,3.496 -14.36,17.937 -41.93,24.363 -63.05,29.578 -29.2,7.226 -59.57,10.984 -89.61,12.324 -10.08,0.449 -10.3,0.606 -10.88,11.32 -0.49,9.442 0.18,18.934 1.04,28.34 2.11,23.004 7.83,45.723 14.44,67.801 5.49,18.301 13.1,35.859 18.67,54.121 6,19.699 9.04,40.227 10.97,60.684 6.56,69.406 -3.33,144.297 -40.47,204.472 -13.59,22.012 -33.98,44.969 -59.49,53.118 -0.84,0.261 -1.69,0.496 -2.58,0.593 -2.22,0.274 -2.99,-3.164 -1.11,-4.14 0.62,-0.321 1.31,-0.391 1.99,-0.508 -0.17,1.359 -0.35,2.715 -0.53,4.062 -36.76,-27.199 -84.2,-44.609 -129.88,-45.293 -2.87,-0.046 -2.87,-4.492 0,-4.453 46.41,0.703 94.77,18.262 132.13,45.918 1.35,0.989 1.58,3.711 -0.53,4.055 -0.38,0.066 -1.89,0.566 -0.93,0.066 -0.38,-1.386 -0.75,-2.773 -1.14,-4.148 10.56,-1.281 25.37,-13.344 33.73,-21.137 29.48,-27.437 45.22,-67.332 55.41,-105.379 15.94,-59.433 14.87,-127.597 -1.85,-186.718 -7.95,-28.067 -19.69,-54.61 -26.47,-83.114 -6.32,-26.574 -9.89,-54.386 -6.72,-81.633 0.14,-1.21 0.9,-2.226 2.23,-2.226 31.18,-0.164 62.45,-4.16 92.93,-10.684 14.06,-3.008 27.95,-6.953 41.33,-12.254 6.13,-2.433 11.99,-5.48 17.54,-9.054 2.51,-1.621 4.77,-3.594 6.93,-5.664 2.49,-2.383 -0.8,-1.934 -5.06,-3.504 -28.41,-10.473 -63.19,-8.106 -92.99,-7.973 -38.12,0.168 -76.17,0.598 -114.15,4.27 -12.41,1.211 -24.75,2.91 -37.06,4.882 -1.87,0.301 -13.98,0.95 -13.99,4.375 -0.01,3.692 -0.09,7.364 -0.17,11.047 -0.31,14.473 -1.54,28.914 -4.42,43.114 -4.47,22.031 -16.14,44.472 -37.86,53.593 -24.57,10.313 -57.08,9.16 -80,-4.941 -18.79,-11.563 -25.29,-33.828 -26.82,-54.551 -1.35,-18.34 1.53,-36.992 4.88,-54.961 -0.25,1.387 -33.28,1.828 -36.54,1.934 -15.37,0.469 -30.76,0.168 -46.12,-0.332 -60.67,-1.973 -121.09,-9.442 -181.86,-9.207 -6.51,0.019 -13.02,0.23 -19.54,0.484 -6.24,0.246 -6.72,0.383 -3.86,5.149 4.53,7.558 12.34,12.824 19.76,17.16 17.18,10.027 37.51,14.851 56.76,19.09 45.33,9.96 91.87,13.281 137.74,19.968 1.58,0.227 1.83,2.114 1.34,3.274 -21.83,51.687 -55.64,96.808 -78.46,147.91 -24.76,55.5 -33.8,124.133 -17.75,183.125 7.87,28.887 20.21,56.699 35.76,82.258 8.29,13.633 18.07,26.316 29.32,37.625 3.45,3.457 22.56,20.547 24.76,18.789 39.48,-31.66 91.35,-49.961 141.74,-50.606 2.87,-0.027 2.87,4.414 0,4.453"
         style="fill:#000000;fill-opacity:1;fill-rule:nonzero;stroke:none"
         id="path124" /><path
         d="m 3222.38,812.09 c -27.63,-1.192 -101.21,24.355 -101.21,24.355 -31.17,-56.101 -37.4,-120.937 -37.4,-184.531 0,-58.594 22.44,-144.629 84.78,-165.82 48.63,-17.461 110.96,-13.731 150.86,19.941 46.14,38.653 63.6,110.969 59.85,169.57 -1.24,32.415 -8.72,66.086 -17.45,98.497 -4.99,23.691 -22.45,46.132 -28.67,66.086 0,0 -39.96,-25.059 -110.76,-28.098"
         style="fill:#f4b1a6;fill-opacity:1;fill-rule:nonzero;stroke:none"
         id="path126" /><path
         d="m 3222.38,813.203 c -33.51,-0.625 -69.57,13.477 -100.92,24.317 -0.44,0.156 -1.03,-0.098 -1.25,-0.508 -19.04,-35.176 -29,-73.399 -33.86,-112.918 -4.32,-35.02 -6.23,-72.199 -1.23,-107.27 8.1,-56.851 32.54,-115.965 91.36,-134.519 64.95,-20.489 136.31,-0.703 173.24,57.734 39.9,63.145 35.21,143.059 18.74,212.59 -3.23,13.609 -6.1,27.906 -11.9,40.691 -7.17,15.852 -16.66,30.672 -22.36,47.16 -0.22,0.653 -0.99,1.063 -1.62,0.665 -31.9,-19.719 -73.67,-26.067 -110.2,-27.942 -1.44,-0.078 -1.44,-2.305 0,-2.226 32.13,1.64 63.98,7.402 93.83,19.699 5.55,2.273 11.02,4.851 16.23,7.812 2.18,1.231 1.74,-4.699 2.77,-6.972 4.63,-10.305 10.08,-20.168 15.19,-30.227 10.33,-20.41 14.83,-43.508 19.66,-65.723 5.17,-23.742 8.03,-47.832 8.55,-72.128 0.84,-38.172 -7.4,-77.129 -24.59,-111.25 -18.43,-36.622 -49.68,-61.692 -89.51,-71.29 -36.7,-8.847 -82.21,-4.5 -114.72,15.489 -59.85,36.797 -66.57,124.043 -64.34,186.523 1.09,30.774 4.8,61.414 12.36,91.301 3.75,14.812 8.95,29.195 15.06,43.184 0.61,1.386 8.59,17.781 8.15,17.929 1.46,-0.508 2.94,-1.008 4.42,-1.496 30.29,-10.176 64.58,-23.457 96.94,-22.851 1.43,0.019 1.43,2.246 0,2.226"
         style="fill:#000000;fill-opacity:1;fill-rule:nonzero;stroke:none"
         id="path128" /><path
         d="m 2869.8,1517.19 c 38.31,-15.47 68.19,-44.44 96.68,-73.46 13.4,-13.63 26.63,-27.44 40.59,-40.49 10.95,-10.24 24.45,-24.39 38.98,-29.43 21.48,-7.42 25.91,16.09 27.91,32.28 4.61,37.58 10.74,79.61 -2.11,115.92 -0.95,2.69 -5.25,1.53 -4.29,-1.17 12,-33.95 5.63,-70.02 2.88,-105.02 -0.9,-11.37 -1.59,-24.1 -7.49,-34.18 -9.58,-16.31 -35.34,9.51 -43.24,16.24 -49.2,41.9 -86.9,98.64 -148.73,123.6 -2.66,1.08 -3.8,-3.23 -1.18,-4.29 v 0"
         style="fill:#000000;fill-opacity:1;fill-rule:nonzero;stroke:none"
         id="path130" /><path
         d="m 3340.96,524.719 c 22.26,54.539 9,102.422 -11.03,156.961 -21.15,54.543 -72.35,120.215 -136.91,83.476 -59,-33.386 -94.8,-112.715 -94.8,-176.152 1.12,-62.344 27.71,-142.313 109.31,-153.699 68.99,-9.621 114.5,43.777 133.43,89.414"
         style="fill:#ffffff;fill-opacity:1;fill-rule:nonzero;stroke:none"
         id="path132" /><path
         d="m 3340.96,524.719 c 22.26,54.539 9,102.422 -11.03,156.961 -21.15,54.543 -72.35,120.215 -136.91,83.476 -59,-33.386 -94.8,-112.715 -94.8,-176.152 1.12,-62.344 27.71,-142.313 109.31,-153.699 68.99,-9.621 114.5,43.777 133.43,89.414 z"
         style="fill:none;stroke:#1a171b;stroke-width:5;stroke-linecap:butt;stroke-linejoin:miter;stroke-miterlimit:10;stroke-dasharray:none;stroke-opacity:1"
         id="path134" /><path
         d="m 3189.92,759.141 c 6.96,-12.989 26.51,-12.539 39.04,-11.895 12,0.625 32.62,1.856 41.82,10.82 2.35,2.305 -1.25,5.887 -3.59,3.594 -7.66,-7.461 -26.41,-8.398 -36.25,-9.199 -10.87,-0.879 -30.5,-2.188 -36.62,9.238 -1.55,2.891 -5.94,0.332 -4.4,-2.558 v 0"
         style="fill:#f6ae3d;fill-opacity:1;fill-rule:nonzero;stroke:none"
         id="path136" /><path
         d="m 3166.37,739.922 c 12.89,-14.121 36.34,-16.348 54.35,-17.188 12.21,-0.566 24.55,0.762 36.47,3.321 12.34,2.656 21.33,8.066 31.25,15.625 2.58,1.972 0.04,6.386 -2.56,4.394 -8.81,-6.711 -16.7,-11.629 -27.5,-14.5 -10.45,-2.785 -21.38,-3.691 -32.15,-3.832 -17.64,-0.242 -43.61,1.914 -56.27,15.774 -2.21,2.422 -5.8,-1.18 -3.59,-3.594 v 0"
         style="fill:#456f63;fill-opacity:1;fill-rule:nonzero;stroke:none"
         id="path138" /><path
         d="m 3148.13,720.293 c 19.98,-21.035 54.27,-25.848 81.76,-25.93 27.55,-0.066 58.18,3.508 79.62,22.836 2.44,2.196 -1.17,5.789 -3.59,3.602 -20.51,-18.477 -49.83,-21.184 -76.03,-21.348 -26.04,-0.168 -59.25,4.539 -78.17,24.434 -2.26,2.383 -5.84,-1.219 -3.59,-3.594 v 0"
         style="fill:#d9635e;fill-opacity:1;fill-rule:nonzero;stroke:none"
         id="path140" /><path
         d="m 3126.95,688.762 c 25.67,-21.789 61.89,-28.742 94.51,-31.965 19.22,-1.887 38.62,-0.527 57.49,3.555 9,1.953 17.51,5.136 26.21,8.086 7.95,2.695 15.78,5.128 22.91,9.667 2.76,1.758 0.21,6.165 -2.56,4.395 -12.84,-8.176 -30.1,-12.734 -44.77,-16.492 -18.3,-4.699 -37.32,-5.645 -56.11,-4.387 -31.73,2.149 -69.24,9.649 -94.08,30.734 -2.48,2.11 -6.1,-1.476 -3.6,-3.593 v 0"
         style="fill:#58a2d4;fill-opacity:1;fill-rule:nonzero;stroke:none"
         id="path142" /><path
         d="m 3109.49,644.102 c 29.46,-23.497 71.58,-32.598 108.42,-34.739 43.13,-2.508 86.58,8.137 123.34,30.864 2.77,1.718 0.23,6.121 -2.58,4.39 -34.61,-21.414 -74.22,-31.16 -114.78,-30.398 -19.98,0.371 -39.55,4.004 -58.77,9.308 -18.48,5.086 -36.92,12.118 -52.02,24.168 -2.54,2.024 -6.17,-1.562 -3.61,-3.593 v 0"
         style="fill:#aea529;fill-opacity:1;fill-rule:nonzero;stroke:none"
         id="path144" /><path
         d="m 3101.24,594.113 c 14.5,-12.082 35.89,-19.238 53.87,-23.937 21.94,-5.742 45.28,-7.063 67.86,-7.305 43.98,-0.488 89.37,6.992 127.26,30.274 2.78,1.71 0.23,6.113 -2.57,4.394 -36.49,-22.422 -79.4,-29.363 -121.7,-29.59 -21.29,-0.117 -42.95,1.406 -63.81,5.781 -11.2,2.356 -22.1,6.036 -32.58,10.645 -8.46,3.73 -17.56,7.363 -24.73,13.328 -2.5,2.082 -6.13,-1.492 -3.6,-3.59 v 0"
         style="fill:#f6ae3d;fill-opacity:1;fill-rule:nonzero;stroke:none"
         id="path146" /><path
         d="m 3105.48,545.625 c 12.18,-6.523 26.73,-9.98 39.89,-13.816 18.91,-5.5 36.86,-8.645 56.54,-9.161 26.22,-0.695 52.5,1.7 77.99,7.918 12.9,3.157 25.43,7.657 37.6,12.95 11.82,5.136 21.88,12.441 32.73,19.226 2.78,1.731 0.22,6.137 -2.57,4.387 -9.05,-5.645 -17.48,-11.973 -27.13,-16.649 -12.52,-6.066 -25.69,-10.636 -39.1,-14.269 -24.87,-6.738 -50.77,-8.801 -76.47,-8.535 -19.55,0.207 -37.36,3.152 -56.13,8.437 -13.4,3.77 -28.42,7.285 -40.78,13.907 -2.89,1.543 -5.47,-2.852 -2.57,-4.395 v 0"
         style="fill:#456f63;fill-opacity:1;fill-rule:nonzero;stroke:none"
         id="path148" /><path
         d="m 3119.27,503.992 c 37.33,-10.679 75.96,-17.086 114.89,-15.594 35.39,1.348 74.79,9.707 103.38,31.692 2.57,1.973 0.04,6.394 -2.56,4.394 -28.87,-22.199 -68.1,-29.757 -103.71,-31.117 -37.4,-1.433 -74.82,5.278 -110.64,15.539 -3.17,0.899 -4.52,-4.011 -1.36,-4.914 v 0"
         style="fill:#d9635e;fill-opacity:1;fill-rule:nonzero;stroke:none"
         id="path150" /><path
         d="m 3147.77,464.309 c 16.96,-6.145 35.77,-10.286 53.64,-12.551 30.89,-3.906 62.85,2.441 92.67,10.137 3.18,0.808 1.84,5.714 -1.35,4.902 -29.78,-7.676 -60.5,-13.184 -91.32,-9.949 -17.29,1.824 -35.94,6.433 -52.29,12.371 -3.08,1.113 -4.4,-3.797 -1.35,-4.91 v 0"
         style="fill:#58a2d4;fill-opacity:1;fill-rule:nonzero;stroke:none"
         id="path152" /><path
         d="m 3446.46,712.324 c -6.5,-53.828 -55.44,-96.238 -106.01,-104.394 -45.66,-9.785 -83.18,32.617 -34.25,61.972 37.51,22.84 89.71,42.422 104.39,88.086 4.9,13.047 13.39,38.211 6.85,51.27 0,0 33.93,-64.317 29.02,-96.934"
         style="fill:#ffffff;fill-opacity:1;fill-rule:nonzero;stroke:none"
         id="path154" /><path
         d="m 3444.34,712.91 c -6.06,-42.449 -35.54,-75.762 -73.66,-93.574 -20.11,-9.395 -45.17,-14.883 -66.2,-5.82 -26.12,11.261 -21.16,37.179 -1.37,51.765 28.96,21.36 63.57,32.153 89.25,58.489 11.14,11.425 17.39,25.078 22.64,39.89 4.99,14.094 10.36,31.594 4.6,46.184 -1.36,-0.567 -2.71,-1.145 -4.07,-1.719 14.49,-27.656 32.42,-63.828 28.73,-95.801 -0.33,-2.851 4.12,-2.82 4.43,0 3.79,32.813 -14.43,69.649 -29.33,98.047 -1.15,2.207 -4.98,0.656 -4.05,-1.711 7.78,-19.683 -4.67,-49.93 -14.78,-67.144 -11.66,-19.875 -32.21,-33.34 -51.53,-44.836 -20.56,-12.246 -80.73,-33.125 -66.3,-67.325 14.98,-35.457 62.91,-25.593 90.21,-13.847 39.22,16.855 69.66,53.762 75.72,96.222 0.39,2.801 -3.9,4.004 -4.29,1.18"
         style="fill:#000000;fill-opacity:1;fill-rule:nonzero;stroke:none"
         id="path156" /><path
         d="m 2999.02,703.684 c 6.53,-53.84 55.47,-96.243 106.03,-104.399 45.66,-9.793 83.19,32.629 34.25,61.985 -37.52,22.832 -89.71,42.414 -104.4,88.078 -4.88,13.054 -13.38,38.222 -6.85,51.265 0,0 -33.91,-64.304 -29.03,-96.929"
         style="fill:#ffffff;fill-opacity:1;fill-rule:nonzero;stroke:none"
         id="path158" /><path
         d="m 2996.88,703.098 c 5.99,-42.051 34.69,-75.657 71.93,-94.473 27.44,-13.867 74.69,-23.527 92.91,9.52 18.55,33.691 -41.53,56.328 -61.78,67.882 -20,11.434 -39.35,24.668 -52.89,43.641 -11.82,16.602 -24.71,50.508 -16.85,70.352 0.93,2.363 -2.91,3.925 -4.07,1.718 -14.88,-28.41 -33.12,-65.234 -29.33,-98.054 0.33,-2.825 4.78,-2.844 4.45,0 -3.69,31.98 14.22,68.152 28.73,95.808 -1.37,0.567 -2.72,1.145 -4.08,1.707 -10.06,-25.465 8.36,-63.894 24.67,-83.238 22.75,-27.004 58.02,-40.852 87.61,-58.606 22,-13.21 30.58,-37.773 5.8,-52.949 -18.63,-11.406 -42.91,-5.468 -62.01,1.367 -41.62,14.864 -74.55,52.59 -80.8,96.497 -0.41,2.832 -4.69,1.621 -4.29,-1.172"
         style="fill:#000000;fill-opacity:1;fill-rule:nonzero;stroke:none"
         id="path160" /><path
         d="m 1063.1,584.434 c 22.26,54.531 9.01,102.421 -11.03,156.953 -21.15,54.551 -72.359,120.215 -136.914,83.484 -58.996,-33.387 -94.801,-112.715 -94.801,-176.16 1.114,-62.332 27.711,-142.305 109.313,-153.691 68.984,-9.629 114.512,43.769 133.432,89.414"
         style="fill:#ffffff;fill-opacity:1;fill-rule:nonzero;stroke:none"
         id="path162" /><path
         d="m 1063.1,584.434 c 22.26,54.531 9.01,102.421 -11.03,156.953 -21.15,54.551 -72.359,120.215 -136.914,83.484 -58.996,-33.387 -94.801,-112.715 -94.801,-176.16 1.114,-62.332 27.711,-142.305 109.313,-153.691 68.984,-9.629 114.512,43.769 133.432,89.414 z"
         style="fill:none;stroke:#1a171b;stroke-width:5;stroke-linecap:butt;stroke-linejoin:miter;stroke-miterlimit:10;stroke-dasharray:none;stroke-opacity:1"
         id="path164" /><path
         d="m 912.063,818.848 c 6.953,-12.981 26.496,-12.539 39.035,-11.895 12,0.625 32.629,1.867 41.824,10.82 2.348,2.305 -1.246,5.899 -3.598,3.606 -7.66,-7.461 -26.398,-8.399 -36.254,-9.199 -10.863,-0.891 -30.492,-2.2 -36.621,9.238 -1.547,2.879 -5.937,0.32 -4.386,-2.57 v 0"
         style="fill:#f6ae3d;fill-opacity:1;fill-rule:nonzero;stroke:none"
         id="path166" /><path
         d="m 888.5,799.629 c 12.902,-14.109 36.359,-16.348 54.367,-17.188 12.199,-0.566 24.535,0.762 36.453,3.321 12.356,2.656 21.34,8.078 31.26,15.636 2.57,1.961 0.05,6.375 -2.57,4.383 -8.795,-6.699 -16.697,-11.621 -27.487,-14.492 -10.457,-2.793 -21.382,-3.691 -32.16,-3.828 -17.636,-0.242 -43.601,1.914 -56.261,15.762 -2.215,2.433 -5.809,-1.172 -3.602,-3.594 v 0"
         style="fill:#456f63;fill-opacity:1;fill-rule:nonzero;stroke:none"
         id="path168" /><path
         d="m 870.27,780 c 19.984,-21.023 54.273,-25.84 81.761,-25.918 27.555,-0.078 58.169,3.496 79.629,22.832 2.44,2.199 -1.18,5.781 -3.6,3.594 -20.51,-18.477 -49.837,-21.172 -76.029,-21.348 -26.051,-0.156 -59.258,4.551 -78.168,24.434 -2.261,2.383 -5.851,-1.211 -3.593,-3.594 v 0"
         style="fill:#d9635e;fill-opacity:1;fill-rule:nonzero;stroke:none"
         id="path170" /><path
         d="m 849.098,748.477 c 25.652,-21.797 61.879,-28.75 94.5,-31.961 19.23,-1.887 38.625,-0.528 57.482,3.543 9,1.953 17.52,5.136 26.21,8.086 7.95,2.695 15.78,5.136 22.92,9.679 2.76,1.746 0.21,6.16 -2.57,4.383 -12.84,-8.164 -30.1,-12.734 -44.76,-16.484 -18.306,-4.707 -37.321,-5.645 -56.11,-4.383 -31.731,2.137 -69.247,9.637 -94.079,30.73 -2.48,2.11 -6.093,-1.472 -3.593,-3.593 v 0"
         style="fill:#58a2d4;fill-opacity:1;fill-rule:nonzero;stroke:none"
         id="path172" /><path
         d="m 831.637,703.809 c 29.449,-23.485 71.578,-32.598 108.406,-34.727 43.125,-2.519 86.597,8.125 123.337,30.859 2.79,1.719 0.23,6.114 -2.56,4.395 -34.62,-21.426 -74.222,-31.172 -114.785,-30.41 -19.996,0.383 -39.555,4.004 -58.777,9.316 -18.481,5.086 -36.91,12.11 -52.024,24.16 -2.539,2.032 -6.164,-1.55 -3.597,-3.593 v 0"
         style="fill:#aea529;fill-opacity:1;fill-rule:nonzero;stroke:none"
         id="path174" /><path
         d="m 823.379,653.828 c 14.496,-12.09 35.891,-19.238 53.867,-23.945 21.942,-5.742 45.281,-7.051 67.867,-7.305 43.973,-0.488 89.367,6.992 127.247,30.274 2.79,1.718 0.24,6.113 -2.56,4.394 -36.5,-22.422 -79.394,-29.355 -121.698,-29.59 -21.293,-0.117 -42.961,1.407 -63.817,5.793 -11.199,2.352 -22.097,6.024 -32.57,10.633 -8.461,3.742 -17.57,7.363 -24.738,13.34 -2.504,2.07 -6.122,-1.504 -3.598,-3.594 v 0"
         style="fill:#f6ae3d;fill-opacity:1;fill-rule:nonzero;stroke:none"
         id="path176" /><path
         d="m 827.617,605.332 c 12.18,-6.523 26.731,-9.98 39.899,-13.809 18.894,-5.507 36.855,-8.64 56.531,-9.16 26.219,-0.691 52.5,1.7 77.993,7.91 12.9,3.165 25.42,7.657 37.6,12.95 11.82,5.144 21.88,12.453 32.72,19.238 2.78,1.719 0.23,6.133 -2.56,4.387 -9.06,-5.657 -17.49,-11.973 -27.14,-16.653 -12.51,-6.074 -25.68,-10.644 -39.09,-14.277 -24.875,-6.727 -50.773,-8.789 -76.465,-8.523 -19.562,0.203 -37.375,3.152 -56.144,8.425 -13.398,3.782 -28.41,7.285 -40.781,13.907 -2.883,1.543 -5.457,-2.852 -2.563,-4.395 v 0"
         style="fill:#456f63;fill-opacity:1;fill-rule:nonzero;stroke:none"
         id="path178" /><path
         d="m 841.406,563.711 c 37.332,-10.684 75.973,-17.09 114.895,-15.606 35.394,1.348 74.779,9.708 103.379,31.7 2.57,1.972 0.04,6.386 -2.56,4.394 -28.88,-22.207 -68.104,-29.754 -103.718,-31.113 -37.39,-1.434 -74.816,5.273 -110.644,15.527 -3.164,0.899 -4.5,-4.004 -1.352,-4.902 v 0"
         style="fill:#d9635e;fill-opacity:1;fill-rule:nonzero;stroke:none"
         id="path180" /><path
         d="m 869.91,524.023 c 16.961,-6.152 35.77,-10.293 53.641,-12.558 30.898,-3.906 62.851,2.441 92.669,10.137 3.17,0.82 1.83,5.722 -1.35,4.902 -29.78,-7.676 -60.495,-13.184 -91.319,-9.941 -17.289,1.816 -35.938,6.437 -52.285,12.363 -3.09,1.113 -4.411,-3.789 -1.356,-4.903 v 0"
         style="fill:#58a2d4;fill-opacity:1;fill-rule:nonzero;stroke:none"
         id="path182" /><path
         d="m 1193.96,761.191 c -10.57,-16.718 -84.49,-61.601 -102.09,-67.773 -23.76,-8.789 -41.36,0.891 -64.24,-4.395 -11.44,-2.636 -17.61,-10.554 -15.84,-22.878 2.64,-15.84 18.48,-22.883 31.68,-29.036 24.64,-11.445 56.32,-11.445 80.08,2.637 14.97,8.801 89.77,72.559 99.45,85.762 l -29.04,35.683"
         style="fill:#ffffff;fill-opacity:1;fill-rule:nonzero;stroke:none"
         id="path184" /><path
         d="m 1192.55,762.012 c -9.26,-13.739 -26.81,-23.418 -40.3,-32.371 -16.16,-10.735 -32.86,-20.891 -50.12,-29.778 -9.23,-4.746 -18.36,-7.773 -28.88,-8.593 -14.16,-1.094 -28.09,2.011 -42.29,0.07 -20.32,-2.793 -26.82,-22.695 -14.72,-38.527 12.43,-16.239 40.01,-23.77 59.22,-25.403 20.11,-1.707 40.18,4.153 56.33,16.047 28.8,21.191 56.3,45.215 82.05,69.981 3.7,3.554 7.45,7.167 10.56,11.25 1.26,1.66 -1.55,3.273 -2.8,1.64 -7.83,-10.262 -18.67,-18.808 -28.23,-27.363 -14.43,-12.918 -29.2,-25.477 -44.2,-37.742 -11.89,-9.731 -23.57,-19.883 -38,-25.61 -27.38,-10.847 -57.51,-3.758 -82.01,10.617 -13.05,7.637 -24.22,27.364 -8.26,38.438 11.93,8.281 31.83,3.809 45.37,3.293 18,-0.695 32.59,6.219 47.84,14.637 17.22,9.519 33.95,20.05 50.12,31.25 10.72,7.414 23.7,15.527 31.12,26.523 1.18,1.738 -1.64,3.359 -2.8,1.641 v 0"
         style="fill:#000000;fill-opacity:1;fill-rule:nonzero;stroke:none"
         id="path186" /></g></g></svg>
